<svg version="1.1" xmlns="http://www.w3.org/2000/svg" viewBox="0 0 1469.24882713036 981.5673717756523" width="1469.24882713036" height="981.5673717756523">
  <!-- svg-source:excalidraw -->
  
  <defs>
    <style class="style-fonts">
      @font-face {
        font-family: "Virgil";
        src: url("https://excalidraw.com/Virgil.woff2");
      }
      @font-face {
        font-family: "Cascadia";
        src: url("https://excalidraw.com/Cascadia.woff2");
      }
    </style>
    
  </defs>
  <rect x="0" y="0" width="1469.24882713036" height="981.5673717756523" fill="#ffffff"></rect><g stroke-linecap="round" transform="translate(41.50811459644126 33.99786566108192) rotate(0 110 183)"><path d="M32 0 M32 0 C78.5 0, 125 0, 188 0 M32 0 C69.79 0, 107.57 0, 188 0 M188 0 C209.33 0, 220 10.67, 220 32 M188 0 C209.33 0, 220 10.67, 220 32 M220 32 C220 97.02, 220 162.04, 220 334 M220 32 C220 128.26, 220 224.53, 220 334 M220 334 C220 355.33, 209.33 366, 188 366 M220 334 C220 355.33, 209.33 366, 188 366 M188 366 C136.52 366, 85.03 366, 32 366 M188 366 C133.93 366, 79.87 366, 32 366 M32 366 C10.67 366, 0 355.33, 0 334 M32 366 C10.67 366, 0 355.33, 0 334 M0 334 C0 219.41, 0 104.81, 0 32 M0 334 C0 222.81, 0 111.62, 0 32 M0 32 C0 10.67, 10.67 0, 32 0 M0 32 C0 10.67, 10.67 0, 32 0" stroke="#1e1e1e" stroke-width="1" fill="none"></path></g><g stroke-linecap="round" transform="translate(447.49594721632013 33.87869892412796) rotate(0 110 183)"><path d="M32 0 M32 0 C91.41 0, 150.81 0, 188 0 M32 0 C69.23 0, 106.46 0, 188 0 M188 0 C209.33 0, 220 10.67, 220 32 M188 0 C209.33 0, 220 10.67, 220 32 M220 32 C220 94.78, 220 157.56, 220 334 M220 32 C220 147.9, 220 263.79, 220 334 M220 334 C220 355.33, 209.33 366, 188 366 M220 334 C220 355.33, 209.33 366, 188 366 M188 366 C141.47 366, 94.94 366, 32 366 M188 366 C139.45 366, 90.9 366, 32 366 M32 366 C10.67 366, 0 355.33, 0 334 M32 366 C10.67 366, 0 355.33, 0 334 M0 334 C0 267.43, 0 200.86, 0 32 M0 334 C0 233.66, 0 133.32, 0 32 M0 32 C0 10.67, 10.67 0, 32 0 M0 32 C0 10.67, 10.67 0, 32 0" stroke="#1e1e1e" stroke-width="1" fill="none"></path></g><g stroke-linecap="round" transform="translate(842.5473541682433 34.212136406506474) rotate(0 110 183)"><path d="M32 0 M32 0 C89.62 0, 147.24 0, 188 0 M32 0 C72.1 0, 112.21 0, 188 0 M188 0 C209.33 0, 220 10.67, 220 32 M188 0 C209.33 0, 220 10.67, 220 32 M220 32 C220 139.42, 220 246.85, 220 334 M220 32 C220 140.5, 220 249, 220 334 M220 334 C220 355.33, 209.33 366, 188 366 M220 334 C220 355.33, 209.33 366, 188 366 M188 366 C146.38 366, 104.76 366, 32 366 M188 366 C129.57 366, 71.14 366, 32 366 M32 366 C10.67 366, 0 355.33, 0 334 M32 366 C10.67 366, 0 355.33, 0 334 M0 334 C0 228.54, 0 123.08, 0 32 M0 334 C0 247.61, 0 161.22, 0 32 M0 32 C0 10.67, 10.67 0, 32 0 M0 32 C0 10.67, 10.67 0, 32 0" stroke="#1e1e1e" stroke-width="1" fill="none"></path></g><g stroke-linecap="round" transform="translate(1212.5473541682431 40.212136406506474) rotate(0 110 183)"><path d="M32 0 M32 0 C90.01 0, 148.02 0, 188 0 M32 0 C79.55 0, 127.1 0, 188 0 M188 0 C209.33 0, 220 10.67, 220 32 M188 0 C209.33 0, 220 10.67, 220 32 M220 32 C220 109.52, 220 187.05, 220 334 M220 32 C220 137.95, 220 243.9, 220 334 M220 334 C220 355.33, 209.33 366, 188 366 M220 334 C220 355.33, 209.33 366, 188 366 M188 366 C130.6 366, 73.21 366, 32 366 M188 366 C147.95 366, 107.89 366, 32 366 M32 366 C10.67 366, 0 355.33, 0 334 M32 366 C10.67 366, 0 355.33, 0 334 M0 334 C0 253.14, 0 172.27, 0 32 M0 334 C0 261.51, 0 189.01, 0 32 M0 32 C0 10.67, 10.67 0, 32 0 M0 32 C0 10.67, 10.67 0, 32 0" stroke="#1e1e1e" stroke-width="1" fill="none"></path></g><g stroke-linecap="round" transform="translate(11.547354168243146 577.2121364065065) rotate(0 110 183.00000000000006)"><path d="M32 0 M32 0 C72.3 0, 112.61 0, 188 0 M32 0 C80.69 0, 129.39 0, 188 0 M188 0 C209.33 0, 220 10.67, 220 32 M188 0 C209.33 0, 220 10.67, 220 32 M220 32 C220 106.32, 220 180.64, 220 334 M220 32 C220 141.17, 220 250.35, 220 334 M220 334 C220 355.33, 209.33 366, 188 366 M220 334 C220 355.33, 209.33 366, 188 366 M188 366 C153.18 366, 118.37 366, 32 366 M188 366 C145.11 366, 102.22 366, 32 366 M32 366 C10.67 366, 0 355.33, 0 334 M32 366 C10.67 366, 0 355.33, 0 334 M0 334 C0 249.44, 0 164.88, 0 32 M0 334 C0 245.87, 0 157.74, 0 32 M0 32 C0 10.67, 10.67 0, 32 0 M0 32 C0 10.67, 10.67 0, 32 0" stroke="#1e1e1e" stroke-width="1" fill="none"></path></g><g stroke-linecap="round" transform="translate(422.54735416824315 583.2121364065066) rotate(0 110 183)"><path d="M32 0 M32 0 C78.32 0, 124.63 0, 188 0 M32 0 C86.02 0, 140.04 0, 188 0 M188 0 C209.33 0, 220 10.67, 220 32 M188 0 C209.33 0, 220 10.67, 220 32 M220 32 C220 145.23, 220 258.47, 220 334 M220 32 C220 135.23, 220 238.47, 220 334 M220 334 C220 355.33, 209.33 366, 188 366 M220 334 C220 355.33, 209.33 366, 188 366 M188 366 C126.47 366, 64.94 366, 32 366 M188 366 C139.33 366, 90.65 366, 32 366 M32 366 C10.67 366, 0 355.33, 0 334 M32 366 C10.67 366, 0 355.33, 0 334 M0 334 C0 222.36, 0 110.72, 0 32 M0 334 C0 262.19, 0 190.37, 0 32 M0 32 C0 10.67, 10.67 0, 32 0 M0 32 C0 10.67, 10.67 0, 32 0" stroke="#1e1e1e" stroke-width="1" fill="none"></path></g><g stroke-linecap="round" transform="translate(801.24633777524 592.2897155050941) rotate(0 110 183.00000000000006)"><path d="M32 0 M32 0 C81.63 0, 131.25 0, 188 0 M32 0 C71.2 0, 110.39 0, 188 0 M188 0 C209.33 0, 220 10.67, 220 32 M188 0 C209.33 0, 220 10.67, 220 32 M220 32 C220 151.39, 220 270.79, 220 334 M220 32 C220 111.17, 220 190.35, 220 334 M220 334 C220 355.33, 209.33 366, 188 366 M220 334 C220 355.33, 209.33 366, 188 366 M188 366 C153.91 366, 119.83 366, 32 366 M188 366 C153.47 366, 118.94 366, 32 366 M32 366 C10.67 366, 0 355.33, 0 334 M32 366 C10.67 366, 0 355.33, 0 334 M0 334 C0 267.36, 0 200.71, 0 32 M0 334 C0 215.92, 0 97.84, 0 32 M0 32 C0 10.67, 10.67 0, 32 0 M0 32 C0 10.67, 10.67 0, 32 0" stroke="#1e1e1e" stroke-width="1" fill="none"></path></g><g stroke-linecap="round" transform="translate(1238.6582916976122 605.5673717756524) rotate(0 110 182.99999999999994)"><path d="M32 0 M32 0 C75.64 0, 119.28 0, 188 0 M32 0 C92.55 0, 153.1 0, 188 0 M188 0 C209.33 0, 220 10.67, 220 32 M188 0 C209.33 0, 220 10.67, 220 32 M220 32 C220 122.79, 220 213.59, 220 334 M220 32 C220 103.07, 220 174.14, 220 334 M220 334 C220 355.33, 209.33 366, 188 366 M220 334 C220 355.33, 209.33 366, 188 366 M188 366 C137.17 366, 86.33 366, 32 366 M188 366 C130.65 366, 73.31 366, 32 366 M32 366 C10.67 366, 0 355.33, 0 334 M32 366 C10.67 366, 0 355.33, 0 334 M0 334 C0 247.52, 0 161.05, 0 32 M0 334 C0 233.22, 0 132.45, 0 32 M0 32 C0 10.67, 10.67 0, 32 0 M0 32 C0 10.67, 10.67 0, 32 0" stroke="#1e1e1e" stroke-width="1" fill="none"></path></g><g stroke-linecap="round" transform="translate(77.28144419069679 155.9978656610819) rotate(0 70.80503845837143 10.000000000000014)"><path d="M0 0 C32.66 0, 65.31 0, 141.61 0 M0 0 C51.27 0, 102.54 0, 141.61 0 M141.61 0 C141.61 7.78, 141.61 15.56, 141.61 20 M141.61 0 C141.61 7.85, 141.61 15.71, 141.61 20 M141.61 20 C95.79 20, 49.98 20, 0 20 M141.61 20 C87.09 20, 32.57 20, 0 20 M0 20 C0 12.06, 0 4.13, 0 0 M0 20 C0 13.25, 0 6.49, 0 0" stroke="#000000" stroke-width="1" fill="none"></path></g><g transform="translate(83.79140792924079 160.98927350926158) rotate(0 21 5)"><text x="0" y="0" font-family="Virgil, Segoe UI Emoji" font-size="8.01374744291258px" fill="#000000" text-anchor="start" style="white-space: pre;" direction="ltr" dominant-baseline="text-before-edge">Filled text</text></g><g stroke-linecap="round" transform="translate(80.28144419069679 210.99786566108196) rotate(0 70.80503845837143 10)"><path d="M0 0 C53.7 0, 107.4 0, 141.61 0 M0 0 C42.71 0, 85.43 0, 141.61 0 M141.61 0 C141.61 6.86, 141.61 13.73, 141.61 20 M141.61 0 C141.61 5.58, 141.61 11.16, 141.61 20 M141.61 20 C102.82 20, 64.03 20, 0 20 M141.61 20 C111.44 20, 81.26 20, 0 20 M0 20 C0 15.03, 0 10.07, 0 0 M0 20 C0 13.17, 0 6.35, 0 0" stroke="#000000" stroke-width="1" fill="none"></path></g><g transform="translate(86.79140792924079 215.98927350926158) rotate(0 21 5)"><text x="0" y="0" font-family="Virgil, Segoe UI Emoji" font-size="8.01374744291258px" fill="#000000" text-anchor="start" style="white-space: pre;" direction="ltr" dominant-baseline="text-before-edge">Filled text</text></g><g stroke-linecap="round" transform="translate(103.73041409237157 276.0296146031518) rotate(0 46.35606855669664 10.96825105793016)"><path d="M5.86 0.92 L88.82 1.87 L92.43 4.09 L92.23 17.61 L86.63 23.19 L4.53 21.62 L1.02 20.52 L1.72 7.32 L2.51 0.6 L6.93 1.65" stroke="none" stroke-width="0" fill="black"></path><path d="M5.48 0 M5.48 0 C36.33 -0.44, 61.98 1.16, 87.23 0 M5.48 0 C23.84 -0.34, 40.83 -0.04, 87.23 0 M87.23 0 C90.08 1.71, 94.41 2.48, 92.71 5.48 M87.23 0 C91.65 0.97, 92.61 3.84, 92.71 5.48 M92.71 5.48 C92.1 8.62, 92.36 14.34, 92.71 16.45 M92.71 5.48 C92.5 8.86, 93.26 12.78, 92.71 16.45 M92.71 16.45 C93.69 21.46, 88.94 21.94, 87.23 21.94 M92.71 16.45 C90.55 18.35, 91.23 24.14, 87.23 21.94 M87.23 21.94 C65.79 24.24, 40.62 22.88, 5.48 21.94 M87.23 21.94 C56.21 22.92, 24.35 22.83, 5.48 21.94 M5.48 21.94 C2.15 23.6, -0.11 19.23, 0 16.45 M5.48 21.94 C1.16 21.41, -0.78 19.83, 0 16.45 M0 16.45 C-1.05 11.41, -0.35 8.44, 0 5.48 M0 16.45 C-0.11 14.42, 0.34 11.79, 0 5.48 M0 5.48 C0.43 3.58, 1.07 1.33, 5.48 0 M0 5.48 C-0.69 3.61, 2.56 1.09, 5.48 0" stroke="#000000" stroke-width="1" fill="none"></path></g><g transform="translate(120.83648264906822 280.99786566108196) rotate(0 29.25 6)"><text x="29.25" y="0" font-family="Virgil, Segoe UI Emoji" font-size="9.155874303902381px" fill="white" text-anchor="middle" style="white-space: pre;" direction="ltr" dominant-baseline="text-before-edge">Me connecter</text></g><g stroke-linecap="round" transform="translate(133.6832641851487 79.2969965872445) rotate(0 12.458495036506065 12.458495036506037)"><path d="M0 0 C5.8 0, 11.61 0, 24.92 0 M0 0 C9.92 0, 19.85 0, 24.92 0 M24.92 0 C24.92 8.28, 24.92 16.56, 24.92 24.92 M24.92 0 C24.92 9.32, 24.92 18.64, 24.92 24.92 M24.92 24.92 C15.95 24.92, 6.99 24.92, 0 24.92 M24.92 24.92 C18.1 24.92, 11.28 24.92, 0 24.92 M0 24.92 C0 16.83, 0 8.74, 0 0 M0 24.92 C0 17.47, 0 10.02, 0 0" stroke="#000000" stroke-width="1" fill="none"></path></g><g stroke-linecap="round"><g transform="translate(134.09501664318236 104.09401810929656) rotate(0 12.102660065514272 -12.398848027044423)"><path d="M0 0 C4.03 -4.13, 20.17 -20.66, 24.21 -24.8 M0 0 C4.03 -4.13, 20.17 -20.66, 24.21 -24.8" stroke="#000000" stroke-width="1" fill="none"></path></g></g><mask></mask><g stroke-linecap="round"><g transform="translate(158.27409573636658 103.81012348567073) rotate(0 -12.185067959403426 -12.089166925985452)"><path d="M0 0 C-4.06 -4.03, -20.31 -20.15, -24.37 -24.18 M0 0 C-4.06 -4.03, -20.31 -20.15, -24.37 -24.18" stroke="#000000" stroke-width="1" fill="none"></path></g></g><mask></mask><g stroke-linecap="round" transform="translate(466.67109680502756 48.372282973822095) rotate(0 12.458495036506065 12.458495036506037)"><path d="M0 0 C5.1 0, 10.19 0, 24.92 0 M0 0 C7.09 0, 14.17 0, 24.92 0 M24.92 0 C24.92 8.01, 24.92 16.03, 24.92 24.92 M24.92 0 C24.92 6.69, 24.92 13.38, 24.92 24.92 M24.92 24.92 C19.59 24.92, 14.27 24.92, 0 24.92 M24.92 24.92 C17.57 24.92, 10.22 24.92, 0 24.92 M0 24.92 C0 18.18, 0 11.45, 0 0 M0 24.92 C0 17.72, 0 10.53, 0 0" stroke="#000000" stroke-width="1" fill="none"></path></g><g stroke-linecap="round"><g transform="translate(467.08284926306123 73.16930449587416) rotate(0 12.102660065514272 -12.398848027044423)"><path d="M0 0 C4.03 -4.13, 20.17 -20.66, 24.21 -24.8 M0 0 C4.03 -4.13, 20.17 -20.66, 24.21 -24.8" stroke="#000000" stroke-width="1" fill="none"></path></g></g><mask></mask><g stroke-linecap="round"><g transform="translate(491.26192835624545 72.88540987224833) rotate(0 -12.185067959403398 -12.089166925985452)"><path d="M0 0 C-4.06 -4.03, -20.31 -20.15, -24.37 -24.18 M0 0 C-4.06 -4.03, -20.31 -20.15, -24.37 -24.18" stroke="#000000" stroke-width="1" fill="none"></path></g></g><mask></mask><g stroke-linecap="round" transform="translate(861.7225037569507 49.51126733266905) rotate(0 12.458495036506065 12.458495036506037)"><path d="M0 0 C5.89 0, 11.78 0, 24.92 0 M0 0 C8.15 0, 16.29 0, 24.92 0 M24.92 0 C24.92 9.41, 24.92 18.81, 24.92 24.92 M24.92 0 C24.92 6.18, 24.92 12.35, 24.92 24.92 M24.92 24.92 C15.51 24.92, 6.11 24.92, 0 24.92 M24.92 24.92 C15.48 24.92, 6.03 24.92, 0 24.92 M0 24.92 C0 15.01, 0 5.11, 0 0 M0 24.92 C0 16.87, 0 8.83, 0 0" stroke="#000000" stroke-width="1" fill="none"></path></g><g stroke-linecap="round"><g transform="translate(862.1342562149842 74.30828885472111) rotate(0 12.102660065514215 -12.398848027044423)"><path d="M0 0 C4.03 -4.13, 20.17 -20.66, 24.21 -24.8 M0 0 C4.03 -4.13, 20.17 -20.66, 24.21 -24.8" stroke="#000000" stroke-width="1" fill="none"></path></g></g><mask></mask><g stroke-linecap="round"><g transform="translate(886.3133353081686 74.02439423109534) rotate(0 -12.185067959403455 -12.089166925985452)"><path d="M0 0 C-4.06 -4.03, -20.31 -20.15, -24.37 -24.18 M0 0 C-4.06 -4.03, -20.31 -20.15, -24.37 -24.18" stroke="#000000" stroke-width="1" fill="none"></path></g></g><mask></mask><g stroke-linecap="round" transform="translate(1231.7225037569506 55.51126733266902) rotate(0 12.458495036506065 12.458495036506037)"><path d="M0 0 C8.37 0, 16.75 0, 24.92 0 M0 0 C9.47 0, 18.94 0, 24.92 0 M24.92 0 C24.92 6.7, 24.92 13.39, 24.92 24.92 M24.92 0 C24.92 6.57, 24.92 13.14, 24.92 24.92 M24.92 24.92 C17.5 24.92, 10.08 24.92, 0 24.92 M24.92 24.92 C18.93 24.92, 12.94 24.92, 0 24.92 M0 24.92 C0 16.98, 0 9.04, 0 0 M0 24.92 C0 19.22, 0 13.53, 0 0" stroke="#000000" stroke-width="1" fill="none"></path></g><g stroke-linecap="round"><g transform="translate(1232.1342562149844 80.30828885472111) rotate(0 12.102660065514215 -12.398848027044423)"><path d="M0 0 C4.03 -4.13, 20.17 -20.66, 24.21 -24.8 M0 0 C4.03 -4.13, 20.17 -20.66, 24.21 -24.8" stroke="#000000" stroke-width="1" fill="none"></path></g></g><mask></mask><g stroke-linecap="round"><g transform="translate(1256.3133353081685 80.02439423109534) rotate(0 -12.185067959403455 -12.089166925985452)"><path d="M0 0 C-4.06 -4.03, -20.31 -20.15, -24.37 -24.18 M0 0 C-4.06 -4.03, -20.31 -20.15, -24.37 -24.18" stroke="#000000" stroke-width="1" fill="none"></path></g></g><mask></mask><g stroke-linecap="round" transform="translate(30.722503756950573 592.511267332669) rotate(0 12.458495036506037 12.458495036506065)"><path d="M0 0 C8.41 0, 16.82 0, 24.92 0 M0 0 C6.95 0, 13.9 0, 24.92 0 M24.92 0 C24.92 9.46, 24.92 18.91, 24.92 24.92 M24.92 0 C24.92 5.51, 24.92 11.02, 24.92 24.92 M24.92 24.92 C16.82 24.92, 8.72 24.92, 0 24.92 M24.92 24.92 C19.3 24.92, 13.67 24.92, 0 24.92 M0 24.92 C0 15.15, 0 5.39, 0 0 M0 24.92 C0 16.47, 0 8.03, 0 0" stroke="#000000" stroke-width="1" fill="none"></path></g><g stroke-linecap="round"><g transform="translate(31.134256214984134 617.3082888547211) rotate(0 12.102660065514243 -12.398848027044437)"><path d="M0 0 C4.03 -4.13, 20.17 -20.66, 24.21 -24.8 M0 0 C4.03 -4.13, 20.17 -20.66, 24.21 -24.8" stroke="#000000" stroke-width="1" fill="none"></path></g></g><mask></mask><g stroke-linecap="round"><g transform="translate(55.31333530816846 617.0243942310954) rotate(0 -12.185067959403426 -12.089166925985467)"><path d="M0 0 C-4.06 -4.03, -20.31 -20.15, -24.37 -24.18 M0 0 C-4.06 -4.03, -20.31 -20.15, -24.37 -24.18" stroke="#000000" stroke-width="1" fill="none"></path></g></g><mask></mask><g stroke-linecap="round" transform="translate(441.7225037569506 598.511267332669) rotate(0 12.458495036506008 12.458495036506065)"><path d="M0 0 C6.98 0, 13.96 0, 24.92 0 M0 0 C8.92 0, 17.85 0, 24.92 0 M24.92 0 C24.92 8.1, 24.92 16.2, 24.92 24.92 M24.92 0 C24.92 8.89, 24.92 17.77, 24.92 24.92 M24.92 24.92 C19.37 24.92, 13.83 24.92, 0 24.92 M24.92 24.92 C16 24.92, 7.08 24.92, 0 24.92 M0 24.92 C0 16.82, 0 8.72, 0 0 M0 24.92 C0 16.93, 0 8.95, 0 0" stroke="#000000" stroke-width="1" fill="none"></path></g><g stroke-linecap="round"><g transform="translate(442.13425621498413 623.3082888547211) rotate(0 12.102660065514272 -12.398848027044437)"><path d="M0 0 C4.03 -4.13, 20.17 -20.66, 24.21 -24.8 M0 0 C4.03 -4.13, 20.17 -20.66, 24.21 -24.8" stroke="#000000" stroke-width="1" fill="none"></path></g></g><mask></mask><g stroke-linecap="round"><g transform="translate(466.31333530816846 623.0243942310955) rotate(0 -12.185067959403398 -12.089166925985467)"><path d="M0 0 C-4.06 -4.03, -20.31 -20.15, -24.37 -24.18 M0 0 C-4.06 -4.03, -20.31 -20.15, -24.37 -24.18" stroke="#000000" stroke-width="1" fill="none"></path></g></g><mask></mask><g stroke-linecap="round" transform="translate(820.4214873639474 609.5888464312567) rotate(0 12.458495036506065 12.458495036506065)"><path d="M0 0 C8.42 0, 16.83 0, 24.92 0 M0 0 C9.37 0, 18.73 0, 24.92 0 M24.92 0 C24.92 9.92, 24.92 19.84, 24.92 24.92 M24.92 0 C24.92 8.36, 24.92 16.73, 24.92 24.92 M24.92 24.92 C16.12 24.92, 7.33 24.92, 0 24.92 M24.92 24.92 C18.93 24.92, 12.94 24.92, 0 24.92 M0 24.92 C0 19.02, 0 13.12, 0 0 M0 24.92 C0 18.27, 0 11.62, 0 0" stroke="#000000" stroke-width="1" fill="none"></path></g><g stroke-linecap="round"><g transform="translate(820.833239821981 634.3858679533088) rotate(0 12.102660065514215 -12.398848027044437)"><path d="M0 0 C4.03 -4.13, 20.17 -20.66, 24.21 -24.8 M0 0 C4.03 -4.13, 20.17 -20.66, 24.21 -24.8" stroke="#000000" stroke-width="1" fill="none"></path></g></g><mask></mask><g stroke-linecap="round"><g transform="translate(845.0123189151653 634.101973329683) rotate(0 -12.185067959403455 -12.089166925985467)"><path d="M0 0 C-4.06 -4.03, -20.31 -20.15, -24.37 -24.18 M0 0 C-4.06 -4.03, -20.31 -20.15, -24.37 -24.18" stroke="#000000" stroke-width="1" fill="none"></path></g></g><mask></mask><g stroke-linecap="round" transform="translate(1257.8334412863196 620.866502701815) rotate(0 12.458495036506065 12.458495036506065)"><path d="M0 0 C9.11 0, 18.23 0, 24.92 0 M0 0 C6.34 0, 12.67 0, 24.92 0 M24.92 0 C24.92 7.21, 24.92 14.42, 24.92 24.92 M24.92 0 C24.92 7.32, 24.92 14.64, 24.92 24.92 M24.92 24.92 C16.29 24.92, 7.67 24.92, 0 24.92 M24.92 24.92 C15.18 24.92, 5.44 24.92, 0 24.92 M0 24.92 C0 17.35, 0 9.78, 0 0 M0 24.92 C0 18.88, 0 12.85, 0 0" stroke="#000000" stroke-width="1" fill="none"></path></g><g stroke-linecap="round"><g transform="translate(1258.2451937443534 645.6635242238671) rotate(0 12.102660065514215 -12.398848027044437)"><path d="M0 0 C4.03 -4.13, 20.17 -20.66, 24.21 -24.8 M0 0 C4.03 -4.13, 20.17 -20.66, 24.21 -24.8" stroke="#000000" stroke-width="1" fill="none"></path></g></g><mask></mask><g stroke-linecap="round"><g transform="translate(1282.4242728375375 645.3796296002413) rotate(0 -12.185067959403455 -12.089166925985467)"><path d="M0 0 C-4.06 -4.03, -20.31 -20.15, -24.37 -24.18 M0 0 C-4.06 -4.03, -20.31 -20.15, -24.37 -24.18" stroke="#000000" stroke-width="1" fill="none"></path></g></g><mask></mask><g stroke-linecap="round"><g transform="translate(611.6528315559997 53.57977679778692) rotate(0 2.908964893135362 -0.02910921650905607)"><path d="M-0.36 -0.17 C1.62 0.42, 2.22 -0.14, 6.18 0.04 M0.2 0.09 C2.33 -0.02, 4.29 0.06, 5.7 0.1" stroke="#000000" stroke-width="1" fill="none"></path></g></g><mask></mask><g stroke-linecap="round"><g transform="translate(611.6528315559997 55.933992939674184) rotate(0 2.9158710790026703 0.1595158034504749)"><path d="M-0.17 0.37 C1.87 -0.25, 2.69 0.32, 5.94 0.51 M0.09 0.05 C1.31 -0.31, 2.71 -0.24, 6 0.09" stroke="#000000" stroke-width="1" fill="none"></path></g></g><mask></mask><g stroke-linecap="round"><g transform="translate(611.6528315559997 58.36380493986583) rotate(0 3.227942445249255 0.013711903319105545)"><path d="M0.37 0.47 C2 -0.08, 4.86 0.06, 6.41 -0.45 M0.05 -0.02 C1.52 0.05, 3.38 0.08, 5.99 0.14" stroke="#000000" stroke-width="1" fill="none"></path></g></g><mask></mask><g transform="translate(624.3694499393349 50.17294317329761) rotate(0 11.126223714119192 5.705755750830349)"><text x="0" y="0" font-family="Virgil, Segoe UI Emoji" font-size="9.129209201328562px" fill="#000000" text-anchor="start" style="white-space: pre;" direction="ltr" dominant-baseline="text-before-edge">Menu</text></g><g stroke-linecap="round"><g transform="translate(1006.7042385079225 53.913214280165434) rotate(0 2.8507880755510087 -0.07416959172309134)"><path d="M-0.25 0.18 C0.92 0.48, 2.2 0.21, 5.63 -0.45 M-0.17 -0.23 C1.66 -0.07, 2.92 0.25, 5.95 -0.28" stroke="#000000" stroke-width="1" fill="none"></path></g></g><mask></mask><g stroke-linecap="round"><g transform="translate(1006.7042385079225 56.2674304220527) rotate(0 2.6953791264838856 -0.05309621237256579)"><path d="M0.18 -0.33 C1.63 -0.27, 2.54 -0.25, 5.45 -0.39 M-0.23 0.29 C1.38 0.2, 3.17 0.09, 5.62 0.11" stroke="#000000" stroke-width="1" fill="none"></path></g></g><mask></mask><g stroke-linecap="round"><g transform="translate(1006.7042385079225 58.697242422244344) rotate(0 2.841220056958491 0.05255887740855769)"><path d="M-0.33 0.43 C1 0.14, 2.31 -0.47, 5.51 -0.3 M0.29 -0.09 C1.73 0.27, 3.19 -0.23, 6.01 -0.25" stroke="#000000" stroke-width="1" fill="none"></path></g></g><mask></mask><g transform="translate(1019.420856891258 50.506380655676125) rotate(0 11.126223714119192 5.705755750830349)"><text x="0" y="0" font-family="Virgil, Segoe UI Emoji" font-size="9.129209201328562px" fill="#000000" text-anchor="start" style="white-space: pre;" direction="ltr" dominant-baseline="text-before-edge">Menu</text></g><g stroke-linecap="round"><g transform="translate(1376.7042385079226 59.913214280165434) rotate(0 2.960781252017455 0.08387568038530446)"><path d="M0.03 0.02 C1.56 0.39, 2.59 0.43, 5.66 -0.12 M0.12 -0.13 C1.47 -0.14, 2.94 -0.09, 5.89 0" stroke="#2f9e44" stroke-width="1" fill="none"></path></g></g><mask></mask><g stroke-linecap="round"><g transform="translate(1376.7042385079226 62.2674304220527) rotate(0 2.8871674320623697 0.0012120029204538696)"><path d="M0.02 0.24 C2.02 -0.07, 3.66 -0.24, 5.78 -0.23 M-0.13 -0.06 C1.51 -0.15, 3.22 -0.03, 5.9 0.22" stroke="#2f9e44" stroke-width="1" fill="none"></path></g></g><mask></mask><g stroke-linecap="round"><g transform="translate(1376.7042385079226 64.69724242224434) rotate(0 3.0274009949251877 0.1154946556370362)"><path d="M0.24 0.43 C2.12 0.47, 4.13 -0.12, 5.67 -0.12 M-0.06 -0.14 C1.6 -0.07, 3.45 0.02, 6.12 -0.2" stroke="#2f9e44" stroke-width="1" fill="none"></path></g></g><mask></mask><g transform="translate(1389.4208568912582 56.506380655676125) rotate(0 11.126223714119192 5.705755750830349)"><text x="0" y="0" font-family="Virgil, Segoe UI Emoji" font-size="9.129209201328562px" fill="#2f9e44" text-anchor="start" style="white-space: pre;" direction="ltr" dominant-baseline="text-before-edge">Menu</text></g><g stroke-linecap="round"><g transform="translate(175.70423850792224 596.9132142801654) rotate(0 2.9926777890702283 0.014029266399916196)"><path d="M0.07 -0.34 C2.31 0.45, 4.71 -0.13, 5.74 0.37 M0.28 -0.23 C1.53 0.07, 2.7 0.28, 5.91 -0.27" stroke="#000000" stroke-width="1" fill="none"></path></g></g><mask></mask><g stroke-linecap="round"><g transform="translate(175.70423850792224 599.2674304220527) rotate(0 2.9642004532363444 -0.10678135675772182)"><path d="M-0.34 0.04 C2.47 0.15, 3.9 -0.17, 6.27 -0.34 M-0.23 0.11 C2.35 -0.21, 4.88 -0.04, 5.63 0.13" stroke="#000000" stroke-width="1" fill="none"></path></g></g><mask></mask><g stroke-linecap="round"><g transform="translate(175.70423850792224 601.6972424222444) rotate(0 3.0332666420654846 0.2919369005538215)"><path d="M0.04 0.46 C2.01 -0.09, 3.55 0.4, 5.56 0.55 M0.11 0.03 C1.19 0.28, 2.71 -0.22, 6.03 0.23" stroke="#000000" stroke-width="1" fill="none"></path></g></g><mask></mask><g transform="translate(188.4208568912578 593.5063806556761) rotate(0 11.126223714119192 5.705755750830349)"><text x="0" y="0" font-family="Virgil, Segoe UI Emoji" font-size="9.129209201328562px" fill="#000000" text-anchor="start" style="white-space: pre;" direction="ltr" dominant-baseline="text-before-edge">Menu</text></g><g stroke-linecap="round"><g transform="translate(586.7042385079222 602.9132142801656) rotate(0 2.872608273240985 -0.23040816366238914)"><path d="M0.27 0.06 C0.91 0.15, 2.34 0.3, 5.84 -0.59 M-0.09 0.04 C2.31 0.07, 4.81 0.12, 5.84 -0.21" stroke="#000000" stroke-width="1" fill="none"></path></g></g><mask></mask><g stroke-linecap="round"><g transform="translate(586.7042385079222 605.2674304220528) rotate(0 2.8691611743865337 0.0946822541760639)"><path d="M0.06 -0.34 C1.9 -0.18, 3.76 -0.09, 5.31 0.53 M0.04 0.01 C1.61 0.24, 3.24 -0.05, 5.69 0.02" stroke="#000000" stroke-width="1" fill="none"></path></g></g><mask></mask><g stroke-linecap="round"><g transform="translate(586.7042385079222 607.6972424222446) rotate(0 3.044853441012492 -0.042113640065224445)"><path d="M-0.34 0.19 C2.07 0.34, 4.37 -0.59, 6.43 -0.19 M0.01 0.03 C1.57 0.07, 2.63 -0.21, 5.92 0.13" stroke="#000000" stroke-width="1" fill="none"></path></g></g><mask></mask><g transform="translate(599.4208568912578 599.506380655676) rotate(0 11.126223714119192 5.705755750830349)"><text x="0" y="0" font-family="Virgil, Segoe UI Emoji" font-size="9.129209201328562px" fill="#000000" text-anchor="start" style="white-space: pre;" direction="ltr" dominant-baseline="text-before-edge">Menu</text></g><g stroke-linecap="round"><g transform="translate(965.4032221149195 613.9907933787531) rotate(0 2.7665520308086116 0.09583547367788015)"><path d="M-0.29 -0.34 C1.99 -0.05, 3.96 0.4, 5.38 0.53 M0.27 -0.13 C1.64 -0.25, 4.14 0.25, 5.82 -0.22" stroke="#000000" stroke-width="1" fill="none"></path></g></g><mask></mask><g stroke-linecap="round"><g transform="translate(965.4032221149195 616.3450095206404) rotate(0 3.0460066605143084 0.006610124867506784)"><path d="M-0.34 0.25 C1.28 0.52, 3.02 -0.49, 6.43 0.16 M-0.13 -0.29 C1.32 0.23, 3.34 -0.13, 5.68 -0.19" stroke="#000000" stroke-width="1" fill="none"></path></g></g><mask></mask><g stroke-linecap="round"><g transform="translate(965.4032221149195 618.774821520832) rotate(0 2.8855415221617022 0.05930667673254675)"><path d="M0.25 0 C2.74 0.48, 3.99 0.57, 6.06 -0.25 M-0.29 -0.21 C2.49 0.31, 4.34 -0.2, 5.71 -0.22" stroke="#000000" stroke-width="1" fill="none"></path></g></g><mask></mask><g transform="translate(978.119840498255 610.5839597542638) rotate(0 11.126223714119192 5.705755750830349)"><text x="0" y="0" font-family="Virgil, Segoe UI Emoji" font-size="9.129209201328562px" fill="#000000" text-anchor="start" style="white-space: pre;" direction="ltr" dominant-baseline="text-before-edge">Menu</text></g><g stroke-linecap="round"><g transform="translate(1402.8151760372916 625.2684496493114) rotate(0 3.2004060501543563 0.22011620046907865)"><path d="M0.12 0.41 C1.4 -0.03, 2.95 -0.3, 6.28 0.58 M0.22 -0.14 C1.56 0.04, 2.82 -0.06, 5.64 0.25" stroke="#000000" stroke-width="1" fill="none"></path></g></g><mask></mask><g stroke-linecap="round"><g transform="translate(1402.8151760372916 627.6226657911986) rotate(0 3.170287387305507 -0.17710831998539334)"><path d="M0.41 -0.34 C2.29 -0.56, 4.31 0.37, 6.48 -0.22 M-0.14 0 C1.53 -0.33, 2.9 -0.31, 6.15 0.02" stroke="#000000" stroke-width="1" fill="none"></path></g></g><mask></mask><g stroke-linecap="round"><g transform="translate(1402.8151760372916 630.0524777913903) rotate(0 2.7900247216016396 -0.10987263835829708)"><path d="M-0.34 0 C1.54 -0.31, 4.57 0.54, 5.68 -0.31 M0 0.07 C1.75 0, 3.82 0.28, 5.92 -0.19" stroke="#000000" stroke-width="1" fill="none"></path></g></g><mask></mask><g transform="translate(1415.5317944206272 621.8616160248221) rotate(0 11.126223714119192 5.705755750830349)"><text x="0" y="0" font-family="Virgil, Segoe UI Emoji" font-size="9.129209201328562px" fill="#000000" text-anchor="start" style="white-space: pre;" direction="ltr" dominant-baseline="text-before-edge">Menu</text></g><g stroke-linecap="round"><g transform="translate(42.086482649068216 370.99786566108173) rotate(0 109 -0.5)"><path d="M0 0 C36.33 -0.17, 181.67 -0.83, 218 -1 M0 0 C36.33 -0.17, 181.67 -0.83, 218 -1" stroke="#1e1e1e" stroke-width="1" fill="none"></path></g></g><mask></mask><g stroke-linecap="round"><g transform="translate(450.0864826490682 367.99786566108173) rotate(0 109 -0.5)"><path d="M0 0 C36.33 -0.17, 181.67 -0.83, 218 -1 M0 0 C36.33 -0.17, 181.67 -0.83, 218 -1" stroke="#1e1e1e" stroke-width="1" fill="none"></path></g></g><mask></mask><g stroke-linecap="round"><g transform="translate(845.1378896009911 368.33130314346045) rotate(0 109 -0.5)"><path d="M0 0 C36.33 -0.17, 181.67 -0.83, 218 -1 M0 0 C36.33 -0.17, 181.67 -0.83, 218 -1" stroke="#1e1e1e" stroke-width="1" fill="none"></path></g></g><mask></mask><g stroke-linecap="round"><g transform="translate(1212.137889600991 213.33130314346045) rotate(0 109 -0.5)"><path d="M0 0 C36.33 -0.17, 181.67 -0.83, 218 -1 M0 0 C36.33 -0.17, 181.67 -0.83, 218 -1" stroke="#1e1e1e" stroke-width="1" fill="none"></path></g></g><mask></mask><g stroke-linecap="round"><g transform="translate(14.137889600991002 911.3313031434604) rotate(0 109 -0.5)"><path d="M0 0 C36.33 -0.17, 181.67 -0.83, 218 -1 M0 0 C36.33 -0.17, 181.67 -0.83, 218 -1" stroke="#1e1e1e" stroke-width="1" fill="none"></path></g></g><mask></mask><g stroke-linecap="round"><g transform="translate(425.137889600991 917.3313031434606) rotate(0 109 -0.5)"><path d="M0 0 C36.33 -0.17, 181.67 -0.83, 218 -1 M0 0 C36.33 -0.17, 181.67 -0.83, 218 -1" stroke="#1e1e1e" stroke-width="1" fill="none"></path></g></g><mask></mask><g stroke-linecap="round"><g transform="translate(803.8368732079879 928.4088822420481) rotate(0 109 -0.5)"><path d="M0 0 C36.33 -0.17, 181.67 -0.83, 218 -1 M0 0 C36.33 -0.17, 181.67 -0.83, 218 -1" stroke="#1e1e1e" stroke-width="1" fill="none"></path></g></g><mask></mask><g stroke-linecap="round"><g transform="translate(1241.24882713036 939.6865385126067) rotate(0 109 -0.5)"><path d="M0 0 C36.33 -0.17, 181.67 -0.83, 218 -1 M0 0 C36.33 -0.17, 181.67 -0.83, 218 -1" stroke="#1e1e1e" stroke-width="1" fill="none"></path></g></g><mask></mask><g transform="translate(183.08648264906822 373.4978656610816) rotate(0 33.80833435058594 10)"><text x="0" y="0" font-family="Virgil, Segoe UI Emoji" font-size="16px" fill="#1e1e1e" text-anchor="start" style="white-space: pre;" direction="ltr" dominant-baseline="text-before-edge">copyright</text></g><g stroke-linecap="round" transform="translate(468.6964840299123 373.938282292605) rotate(0 11 9.5)"><path d="M0.18 2.81 C0.18 2.81, 0.18 2.81, 0.18 2.81 M0.18 2.81 C0.18 2.81, 0.18 2.81, 0.18 2.81 M-0.08 9.2 C1.98 6.83, 4.05 4.45, 6.48 1.66 M-0.08 9.2 C1.62 7.25, 3.32 5.29, 6.48 1.66 M0.31 14.85 C4.28 10.29, 8.24 5.73, 12.12 1.26 M0.31 14.85 C4.64 9.87, 8.97 4.88, 12.12 1.26 M2.02 18.98 C7.68 12.47, 13.33 5.97, 17.77 0.87 M2.02 18.98 C6.23 14.13, 10.45 9.29, 17.77 0.87 M6.35 20.1 C9.8 16.13, 13.25 12.15, 22.1 1.98 M6.35 20.1 C10.51 15.31, 14.67 10.53, 22.1 1.98 M11.34 20.46 C15.11 16.12, 18.88 11.78, 23.8 6.12 M11.34 20.46 C14.52 16.8, 17.7 13.14, 23.8 6.12 M17.64 19.31 C18.78 17.99, 19.92 16.68, 22.23 14.02 M17.64 19.31 C18.72 18.05, 19.81 16.8, 22.23 14.02" stroke="#b2f2bb" stroke-width="0.5" fill="none"></path><path d="M4.75 0 M4.75 0 C7.9 0, 11.04 0, 17.25 0 M4.75 0 C7.28 0, 9.81 0, 17.25 0 M17.25 0 C20.42 0, 22 1.58, 22 4.75 M17.25 0 C20.42 0, 22 1.58, 22 4.75 M22 4.75 C22 8.02, 22 11.29, 22 14.25 M22 4.75 C22 7.15, 22 9.55, 22 14.25 M22 14.25 C22 17.42, 20.42 19, 17.25 19 M22 14.25 C22 17.42, 20.42 19, 17.25 19 M17.25 19 C13.57 19, 9.88 19, 4.75 19 M17.25 19 C13.86 19, 10.46 19, 4.75 19 M4.75 19 C1.58 19, 0 17.42, 0 14.25 M4.75 19 C1.58 19, 0 17.42, 0 14.25 M0 14.25 C0 11.79, 0 9.32, 0 4.75 M0 14.25 C0 10.61, 0 6.98, 0 4.75 M0 4.75 C0 1.58, 1.58 0, 4.75 0 M0 4.75 C0 1.58, 1.58 0, 4.75 0" stroke="#2f9e44" stroke-width="1" fill="none"></path></g><g stroke-linecap="round" transform="translate(863.7478909818352 374.2717197749837) rotate(0 11 9.5)"><path d="M4.75 0 M4.75 0 C7.81 0, 10.87 0, 17.25 0 M4.75 0 C7.86 0, 10.98 0, 17.25 0 M17.25 0 C20.42 0, 22 1.58, 22 4.75 M17.25 0 C20.42 0, 22 1.58, 22 4.75 M22 4.75 C22 8.5, 22 12.25, 22 14.25 M22 4.75 C22 8.33, 22 11.92, 22 14.25 M22 14.25 C22 17.42, 20.42 19, 17.25 19 M22 14.25 C22 17.42, 20.42 19, 17.25 19 M17.25 19 C13.26 19, 9.27 19, 4.75 19 M17.25 19 C14.31 19, 11.36 19, 4.75 19 M4.75 19 C1.58 19, 0 17.42, 0 14.25 M4.75 19 C1.58 19, 0 17.42, 0 14.25 M0 14.25 C0 11, 0 7.74, 0 4.75 M0 14.25 C0 10.97, 0 7.69, 0 4.75 M0 4.75 C0 1.58, 1.58 0, 4.75 0 M0 4.75 C0 1.58, 1.58 0, 4.75 0" stroke="#1e1e1e" stroke-width="1" fill="none"></path></g><g stroke-linecap="round" transform="translate(32.7478909818351 917.2717197749836) rotate(0 11 9.5)"><path d="M4.75 0 M4.75 0 C8.58 0, 12.41 0, 17.25 0 M4.75 0 C9.67 0, 14.59 0, 17.25 0 M17.25 0 C20.42 0, 22 1.58, 22 4.75 M17.25 0 C20.42 0, 22 1.58, 22 4.75 M22 4.75 C22 6.95, 22 9.14, 22 14.25 M22 4.75 C22 7.6, 22 10.44, 22 14.25 M22 14.25 C22 17.42, 20.42 19, 17.25 19 M22 14.25 C22 17.42, 20.42 19, 17.25 19 M17.25 19 C14.12 19, 10.99 19, 4.75 19 M17.25 19 C14.12 19, 10.99 19, 4.75 19 M4.75 19 C1.58 19, 0 17.42, 0 14.25 M4.75 19 C1.58 19, 0 17.42, 0 14.25 M0 14.25 C0 10.98, 0 7.7, 0 4.75 M0 14.25 C0 12.24, 0 10.24, 0 4.75 M0 4.75 C0 1.58, 1.58 0, 4.75 0 M0 4.75 C0 1.58, 1.58 0, 4.75 0" stroke="#1e1e1e" stroke-width="1" fill="none"></path></g><g stroke-linecap="round" transform="translate(443.7478909818351 923.2717197749836) rotate(0 11 9.5)"><path d="M4.75 0 M4.75 0 C7.79 0, 10.82 0, 17.25 0 M4.75 0 C8.11 0, 11.46 0, 17.25 0 M17.25 0 C20.42 0, 22 1.58, 22 4.75 M17.25 0 C20.42 0, 22 1.58, 22 4.75 M22 4.75 C22 8.05, 22 11.36, 22 14.25 M22 4.75 C22 8.54, 22 12.33, 22 14.25 M22 14.25 C22 17.42, 20.42 19, 17.25 19 M22 14.25 C22 17.42, 20.42 19, 17.25 19 M17.25 19 C14.03 19, 10.8 19, 4.75 19 M17.25 19 C13.15 19, 9.05 19, 4.75 19 M4.75 19 C1.58 19, 0 17.42, 0 14.25 M4.75 19 C1.58 19, 0 17.42, 0 14.25 M0 14.25 C0 10.8, 0 7.35, 0 4.75 M0 14.25 C0 10.5, 0 6.75, 0 4.75 M0 4.75 C0 1.58, 1.58 0, 4.75 0 M0 4.75 C0 1.58, 1.58 0, 4.75 0" stroke="#1e1e1e" stroke-width="1" fill="none"></path></g><g stroke-linecap="round" transform="translate(822.446874588832 934.3492988735712) rotate(0 11 9.5)"><path d="M4.75 0 M4.75 0 C9.04 0, 13.33 0, 17.25 0 M4.75 0 C7.98 0, 11.21 0, 17.25 0 M17.25 0 C20.42 0, 22 1.58, 22 4.75 M17.25 0 C20.42 0, 22 1.58, 22 4.75 M22 4.75 C22 7.21, 22 9.68, 22 14.25 M22 4.75 C22 6.85, 22 8.95, 22 14.25 M22 14.25 C22 17.42, 20.42 19, 17.25 19 M22 14.25 C22 17.42, 20.42 19, 17.25 19 M17.25 19 C12.27 19, 7.3 19, 4.75 19 M17.25 19 C14.3 19, 11.34 19, 4.75 19 M4.75 19 C1.58 19, 0 17.42, 0 14.25 M4.75 19 C1.58 19, 0 17.42, 0 14.25 M0 14.25 C0 12.06, 0 9.87, 0 4.75 M0 14.25 C0 11.75, 0 9.25, 0 4.75 M0 4.75 C0 1.58, 1.58 0, 4.75 0 M0 4.75 C0 1.58, 1.58 0, 4.75 0" stroke="#1e1e1e" stroke-width="1" fill="none"></path></g><g stroke-linecap="round" transform="translate(1259.8588285112041 945.6269551441297) rotate(0 11 9.5)"><path d="M4.75 0 M4.75 0 C7.77 0, 10.79 0, 17.25 0 M4.75 0 C7.85 0, 10.95 0, 17.25 0 M17.25 0 C20.42 0, 22 1.58, 22 4.75 M17.25 0 C20.42 0, 22 1.58, 22 4.75 M22 4.75 C22 7.64, 22 10.53, 22 14.25 M22 4.75 C22 7.35, 22 9.94, 22 14.25 M22 14.25 C22 17.42, 20.42 19, 17.25 19 M22 14.25 C22 17.42, 20.42 19, 17.25 19 M17.25 19 C13.61 19, 9.97 19, 4.75 19 M17.25 19 C14.27 19, 11.29 19, 4.75 19 M4.75 19 C1.58 19, 0 17.42, 0 14.25 M4.75 19 C1.58 19, 0 17.42, 0 14.25 M0 14.25 C0 11.09, 0 7.93, 0 4.75 M0 14.25 C0 10.84, 0 7.42, 0 4.75 M0 4.75 C0 1.58, 1.58 0, 4.75 0 M0 4.75 C0 1.58, 1.58 0, 4.75 0" stroke="#1e1e1e" stroke-width="1" fill="none"></path></g><g stroke-linecap="round" transform="translate(526.2240621886868 373.1327354161365) rotate(0 11 9.5)"><path d="M4.75 0 M4.75 0 C8.53 0, 12.3 0, 17.25 0 M4.75 0 C8.74 0, 12.74 0, 17.25 0 M17.25 0 C20.42 0, 22 1.58, 22 4.75 M17.25 0 C20.42 0, 22 1.58, 22 4.75 M22 4.75 C22 7.2, 22 9.66, 22 14.25 M22 4.75 C22 6.71, 22 8.67, 22 14.25 M22 14.25 C22 17.42, 20.42 19, 17.25 19 M22 14.25 C22 17.42, 20.42 19, 17.25 19 M17.25 19 C13.04 19, 8.82 19, 4.75 19 M17.25 19 C13.34 19, 9.42 19, 4.75 19 M4.75 19 C1.58 19, 0 17.42, 0 14.25 M4.75 19 C1.58 19, 0 17.42, 0 14.25 M0 14.25 C0 11.52, 0 8.79, 0 4.75 M0 14.25 C0 11.05, 0 7.86, 0 4.75 M0 4.75 C0 1.58, 1.58 0, 4.75 0 M0 4.75 C0 1.58, 1.58 0, 4.75 0" stroke="#1e1e1e" stroke-width="1" fill="none"></path></g><g stroke-linecap="round" transform="translate(921.27546914061 373.4661728985152) rotate(0 11 9.5)"><path d="M0.18 2.81 C0.18 2.81, 0.18 2.81, 0.18 2.81 M0.18 2.81 C0.18 2.81, 0.18 2.81, 0.18 2.81 M-0.08 9.2 C2.01 6.8, 4.1 4.4, 6.48 1.66 M-0.08 9.2 C2.51 6.23, 5.1 3.25, 6.48 1.66 M0.31 14.85 C4.77 9.72, 9.22 4.6, 12.12 1.26 M0.31 14.85 C4.77 9.72, 9.23 4.59, 12.12 1.26 M2.02 18.98 C6.58 13.73, 11.14 8.48, 17.77 0.87 M2.02 18.98 C6.91 13.36, 11.79 7.74, 17.77 0.87 M6.35 20.1 C11.85 13.77, 17.35 7.45, 22.1 1.98 M6.35 20.1 C10.85 14.91, 15.36 9.73, 22.1 1.98 M11.34 20.46 C15.1 16.13, 18.86 11.8, 23.8 6.12 M11.34 20.46 C15.01 16.23, 18.68 12.01, 23.8 6.12 M17.64 19.31 C18.77 18, 19.9 16.7, 22.23 14.02 M17.64 19.31 C19.12 17.6, 20.6 15.9, 22.23 14.02" stroke="#b2f2bb" stroke-width="0.5" fill="none"></path><path d="M4.75 0 M4.75 0 C8.95 0, 13.16 0, 17.25 0 M4.75 0 C7.91 0, 11.07 0, 17.25 0 M17.25 0 C20.42 0, 22 1.58, 22 4.75 M17.25 0 C20.42 0, 22 1.58, 22 4.75 M22 4.75 C22 7.76, 22 10.77, 22 14.25 M22 4.75 C22 7.83, 22 10.91, 22 14.25 M22 14.25 C22 17.42, 20.42 19, 17.25 19 M22 14.25 C22 17.42, 20.42 19, 17.25 19 M17.25 19 C14.25 19, 11.25 19, 4.75 19 M17.25 19 C12.88 19, 8.51 19, 4.75 19 M4.75 19 C1.58 19, 0 17.42, 0 14.25 M4.75 19 C1.58 19, 0 17.42, 0 14.25 M0 14.25 C0 10.84, 0 7.43, 0 4.75 M0 14.25 C0 12.29, 0 10.32, 0 4.75 M0 4.75 C0 1.58, 1.58 0, 4.75 0 M0 4.75 C0 1.58, 1.58 0, 4.75 0" stroke="#2f9e44" stroke-width="1" fill="none"></path></g><g stroke-linecap="round" transform="translate(90.27546914060986 916.4661728985153) rotate(0 11 9.5)"><path d="M4.75 0 M4.75 0 C9.46 0, 14.18 0, 17.25 0 M4.75 0 C7.6 0, 10.45 0, 17.25 0 M17.25 0 C20.42 0, 22 1.58, 22 4.75 M17.25 0 C20.42 0, 22 1.58, 22 4.75 M22 4.75 C22 8.26, 22 11.77, 22 14.25 M22 4.75 C22 7.63, 22 10.51, 22 14.25 M22 14.25 C22 17.42, 20.42 19, 17.25 19 M22 14.25 C22 17.42, 20.42 19, 17.25 19 M17.25 19 C14.44 19, 11.63 19, 4.75 19 M17.25 19 C14.58 19, 11.91 19, 4.75 19 M4.75 19 C1.58 19, 0 17.42, 0 14.25 M4.75 19 C1.58 19, 0 17.42, 0 14.25 M0 14.25 C0 10.63, 0 7.02, 0 4.75 M0 14.25 C0 11.38, 0 8.51, 0 4.75 M0 4.75 C0 1.58, 1.58 0, 4.75 0 M0 4.75 C0 1.58, 1.58 0, 4.75 0" stroke="#1e1e1e" stroke-width="1" fill="none"></path></g><g stroke-linecap="round" transform="translate(501.27546914060986 922.4661728985153) rotate(0 11 9.5)"><path d="M4.75 0 M4.75 0 C8.9 0, 13.06 0, 17.25 0 M4.75 0 C7.6 0, 10.46 0, 17.25 0 M17.25 0 C20.42 0, 22 1.58, 22 4.75 M17.25 0 C20.42 0, 22 1.58, 22 4.75 M22 4.75 C22 7.09, 22 9.42, 22 14.25 M22 4.75 C22 7.14, 22 9.52, 22 14.25 M22 14.25 C22 17.42, 20.42 19, 17.25 19 M22 14.25 C22 17.42, 20.42 19, 17.25 19 M17.25 19 C13.53 19, 9.81 19, 4.75 19 M17.25 19 C13.73 19, 10.21 19, 4.75 19 M4.75 19 C1.58 19, 0 17.42, 0 14.25 M4.75 19 C1.58 19, 0 17.42, 0 14.25 M0 14.25 C0 12.3, 0 10.36, 0 4.75 M0 14.25 C0 10.95, 0 7.65, 0 4.75 M0 4.75 C0 1.58, 1.58 0, 4.75 0 M0 4.75 C0 1.58, 1.58 0, 4.75 0" stroke="#1e1e1e" stroke-width="1" fill="none"></path></g><g stroke-linecap="round" transform="translate(879.9744527476065 933.543751997103) rotate(0 11 9.5)"><path d="M4.75 0 M4.75 0 C8.49 0, 12.24 0, 17.25 0 M4.75 0 C9.43 0, 14.11 0, 17.25 0 M17.25 0 C20.42 0, 22 1.58, 22 4.75 M17.25 0 C20.42 0, 22 1.58, 22 4.75 M22 4.75 C22 8.48, 22 12.2, 22 14.25 M22 4.75 C22 7.64, 22 10.53, 22 14.25 M22 14.25 C22 17.42, 20.42 19, 17.25 19 M22 14.25 C22 17.42, 20.42 19, 17.25 19 M17.25 19 C13.39 19, 9.53 19, 4.75 19 M17.25 19 C14.32 19, 11.38 19, 4.75 19 M4.75 19 C1.58 19, 0 17.42, 0 14.25 M4.75 19 C1.58 19, 0 17.42, 0 14.25 M0 14.25 C0 10.59, 0 6.93, 0 4.75 M0 14.25 C0 11.65, 0 9.04, 0 4.75 M0 4.75 C0 1.58, 1.58 0, 4.75 0 M0 4.75 C0 1.58, 1.58 0, 4.75 0" stroke="#1e1e1e" stroke-width="1" fill="none"></path></g><g stroke-linecap="round" transform="translate(1317.386406669979 944.8214082676615) rotate(0 11 9.5)"><path d="M4.75 0 M4.75 0 C8.5 0, 12.24 0, 17.25 0 M4.75 0 C9.07 0, 13.39 0, 17.25 0 M17.25 0 C20.42 0, 22 1.58, 22 4.75 M17.25 0 C20.42 0, 22 1.58, 22 4.75 M22 4.75 C22 7.16, 22 9.56, 22 14.25 M22 4.75 C22 6.79, 22 8.83, 22 14.25 M22 14.25 C22 17.42, 20.42 19, 17.25 19 M22 14.25 C22 17.42, 20.42 19, 17.25 19 M17.25 19 C13.31 19, 9.36 19, 4.75 19 M17.25 19 C12.89 19, 8.52 19, 4.75 19 M4.75 19 C1.58 19, 0 17.42, 0 14.25 M4.75 19 C1.58 19, 0 17.42, 0 14.25 M0 14.25 C0 10.7, 0 7.16, 0 4.75 M0 14.25 C0 11.96, 0 9.67, 0 4.75 M0 4.75 C0 1.58, 1.58 0, 4.75 0 M0 4.75 C0 1.58, 1.58 0, 4.75 0" stroke="#1e1e1e" stroke-width="1" fill="none"></path></g><g stroke-linecap="round" transform="translate(469.36367144180485 296.133672757543) rotate(0 11 9.5)"><path d="M4.75 0 M4.75 0 C8.45 0, 12.15 0, 17.25 0 M4.75 0 C7.39 0, 10.03 0, 17.25 0 M17.25 0 C20.42 0, 22 1.58, 22 4.75 M17.25 0 C20.42 0, 22 1.58, 22 4.75 M22 4.75 C22 8.04, 22 11.32, 22 14.25 M22 4.75 C22 8.15, 22 11.54, 22 14.25 M22 14.25 C22 17.42, 20.42 19, 17.25 19 M22 14.25 C22 17.42, 20.42 19, 17.25 19 M17.25 19 C12.41 19, 7.58 19, 4.75 19 M17.25 19 C12.81 19, 8.37 19, 4.75 19 M4.75 19 C1.58 19, 0 17.42, 0 14.25 M4.75 19 C1.58 19, 0 17.42, 0 14.25 M0 14.25 C0 10.75, 0 7.26, 0 4.75 M0 14.25 C0 11.39, 0 8.54, 0 4.75 M0 4.75 C0 1.58, 1.58 0, 4.75 0 M0 4.75 C0 1.58, 1.58 0, 4.75 0" stroke="#1e1e1e" stroke-width="1" fill="none"></path></g><g stroke-linecap="round" transform="translate(503.5300777358585 295.66156336345307) rotate(0 11 9.5)"><path d="M4.75 0 M4.75 0 C8.42 0, 12.08 0, 17.25 0 M4.75 0 C8.76 0, 12.77 0, 17.25 0 M17.25 0 C20.42 0, 22 1.58, 22 4.75 M17.25 0 C20.42 0, 22 1.58, 22 4.75 M22 4.75 C22 7.56, 22 10.38, 22 14.25 M22 4.75 C22 7.92, 22 11.09, 22 14.25 M22 14.25 C22 17.42, 20.42 19, 17.25 19 M22 14.25 C22 17.42, 20.42 19, 17.25 19 M17.25 19 C14.73 19, 12.21 19, 4.75 19 M17.25 19 C12.36 19, 7.46 19, 4.75 19 M4.75 19 C1.58 19, 0 17.42, 0 14.25 M4.75 19 C1.58 19, 0 17.42, 0 14.25 M0 14.25 C0 10.81, 0 7.38, 0 4.75 M0 14.25 C0 11.67, 0 9.1, 0 4.75 M0 4.75 C0 1.58, 1.58 0, 4.75 0 M0 4.75 C0 1.58, 1.58 0, 4.75 0" stroke="#1e1e1e" stroke-width="1" fill="none"></path></g><g stroke-linecap="round" transform="translate(536.0853902769753 297.6060945987685) rotate(0 11 9.5)"><path d="M4.75 0 M4.75 0 C8.92 0, 13.08 0, 17.25 0 M4.75 0 C9.73 0, 14.72 0, 17.25 0 M17.25 0 C20.42 0, 22 1.58, 22 4.75 M17.25 0 C20.42 0, 22 1.58, 22 4.75 M22 4.75 C22 8.18, 22 11.61, 22 14.25 M22 4.75 C22 6.85, 22 8.95, 22 14.25 M22 14.25 C22 17.42, 20.42 19, 17.25 19 M22 14.25 C22 17.42, 20.42 19, 17.25 19 M17.25 19 C12.31 19, 7.38 19, 4.75 19 M17.25 19 C13.72 19, 10.2 19, 4.75 19 M4.75 19 C1.58 19, 0 17.42, 0 14.25 M4.75 19 C1.58 19, 0 17.42, 0 14.25 M0 14.25 C0 12.18, 0 10.11, 0 4.75 M0 14.25 C0 12.09, 0 9.93, 0 4.75 M0 4.75 C0 1.58, 1.58 0, 4.75 0 M0 4.75 C0 1.58, 1.58 0, 4.75 0" stroke="#1e1e1e" stroke-width="1" fill="none"></path></g><g stroke-linecap="round" transform="translate(572.473984076903 372.327188539668) rotate(0 11 9.5)"><path d="M4.75 0 M4.75 0 C8.75 0, 12.74 0, 17.25 0 M4.75 0 C7.4 0, 10.04 0, 17.25 0 M17.25 0 C20.42 0, 22 1.58, 22 4.75 M17.25 0 C20.42 0, 22 1.58, 22 4.75 M22 4.75 C22 8.35, 22 11.94, 22 14.25 M22 4.75 C22 7.27, 22 9.8, 22 14.25 M22 14.25 C22 17.42, 20.42 19, 17.25 19 M22 14.25 C22 17.42, 20.42 19, 17.25 19 M17.25 19 C13.57 19, 9.89 19, 4.75 19 M17.25 19 C14.65 19, 12.05 19, 4.75 19 M4.75 19 C1.58 19, 0 17.42, 0 14.25 M4.75 19 C1.58 19, 0 17.42, 0 14.25 M0 14.25 C0 12.01, 0 9.77, 0 4.75 M0 14.25 C0 10.92, 0 7.59, 0 4.75 M0 4.75 C0 1.58, 1.58 0, 4.75 0 M0 4.75 C0 1.58, 1.58 0, 4.75 0" stroke="#1e1e1e" stroke-width="1" fill="none"></path></g><g stroke-linecap="round" transform="translate(967.525391028826 372.6606260220467) rotate(0 11 9.5)"><path d="M4.75 0 M4.75 0 C7.87 0, 11 0, 17.25 0 M4.75 0 C7.79 0, 10.82 0, 17.25 0 M17.25 0 C20.42 0, 22 1.58, 22 4.75 M17.25 0 C20.42 0, 22 1.58, 22 4.75 M22 4.75 C22 8.27, 22 11.78, 22 14.25 M22 4.75 C22 7.45, 22 10.16, 22 14.25 M22 14.25 C22 17.42, 20.42 19, 17.25 19 M22 14.25 C22 17.42, 20.42 19, 17.25 19 M17.25 19 C12.89 19, 8.53 19, 4.75 19 M17.25 19 C13.39 19, 9.53 19, 4.75 19 M4.75 19 C1.58 19, 0 17.42, 0 14.25 M4.75 19 C1.58 19, 0 17.42, 0 14.25 M0 14.25 C0 10.92, 0 7.59, 0 4.75 M0 14.25 C0 10.96, 0 7.67, 0 4.75 M0 4.75 C0 1.58, 1.58 0, 4.75 0 M0 4.75 C0 1.58, 1.58 0, 4.75 0" stroke="#1e1e1e" stroke-width="1" fill="none"></path></g><g stroke-linecap="round" transform="translate(136.52539102882588 915.6606260220466) rotate(0 11 9.5)"><path d="M4.75 0 M4.75 0 C8.83 0, 12.91 0, 17.25 0 M4.75 0 C9.67 0, 14.59 0, 17.25 0 M17.25 0 C20.42 0, 22 1.58, 22 4.75 M17.25 0 C20.42 0, 22 1.58, 22 4.75 M22 4.75 C22 8.13, 22 11.51, 22 14.25 M22 4.75 C22 8.38, 22 12.01, 22 14.25 M22 14.25 C22 17.42, 20.42 19, 17.25 19 M22 14.25 C22 17.42, 20.42 19, 17.25 19 M17.25 19 C13.09 19, 8.94 19, 4.75 19 M17.25 19 C12.26 19, 7.27 19, 4.75 19 M4.75 19 C1.58 19, 0 17.42, 0 14.25 M4.75 19 C1.58 19, 0 17.42, 0 14.25 M0 14.25 C0 11.62, 0 8.99, 0 4.75 M0 14.25 C0 11.22, 0 8.19, 0 4.75 M0 4.75 C0 1.58, 1.58 0, 4.75 0 M0 4.75 C0 1.58, 1.58 0, 4.75 0" stroke="#1e1e1e" stroke-width="1" fill="none"></path></g><g stroke-linecap="round" transform="translate(547.5253910288259 921.6606260220466) rotate(0 11 9.5)"><path d="M4.75 0 M4.75 0 C8.18 0, 11.61 0, 17.25 0 M4.75 0 C8.11 0, 11.46 0, 17.25 0 M17.25 0 C20.42 0, 22 1.58, 22 4.75 M17.25 0 C20.42 0, 22 1.58, 22 4.75 M22 4.75 C22 7.05, 22 9.36, 22 14.25 M22 4.75 C22 7.39, 22 10.02, 22 14.25 M22 14.25 C22 17.42, 20.42 19, 17.25 19 M22 14.25 C22 17.42, 20.42 19, 17.25 19 M17.25 19 C13.82 19, 10.4 19, 4.75 19 M17.25 19 C14.55 19, 11.86 19, 4.75 19 M4.75 19 C1.58 19, 0 17.42, 0 14.25 M4.75 19 C1.58 19, 0 17.42, 0 14.25 M0 14.25 C0 11.7, 0 9.14, 0 4.75 M0 14.25 C0 10.8, 0 7.36, 0 4.75 M0 4.75 C0 1.58, 1.58 0, 4.75 0 M0 4.75 C0 1.58, 1.58 0, 4.75 0" stroke="#1e1e1e" stroke-width="1" fill="none"></path></g><g stroke-linecap="round" transform="translate(926.2243746358232 932.7382051206342) rotate(0 11 9.5)"><path d="M4.75 0 M4.75 0 C9.53 0, 14.32 0, 17.25 0 M4.75 0 C9.66 0, 14.57 0, 17.25 0 M17.25 0 C20.42 0, 22 1.58, 22 4.75 M17.25 0 C20.42 0, 22 1.58, 22 4.75 M22 4.75 C22 7.5, 22 10.25, 22 14.25 M22 4.75 C22 7.81, 22 10.88, 22 14.25 M22 14.25 C22 17.42, 20.42 19, 17.25 19 M22 14.25 C22 17.42, 20.42 19, 17.25 19 M17.25 19 C13.25 19, 9.24 19, 4.75 19 M17.25 19 C13.6 19, 9.96 19, 4.75 19 M4.75 19 C1.58 19, 0 17.42, 0 14.25 M4.75 19 C1.58 19, 0 17.42, 0 14.25 M0 14.25 C0 11.81, 0 9.37, 0 4.75 M0 14.25 C0 10.45, 0 6.66, 0 4.75 M0 4.75 C0 1.58, 1.58 0, 4.75 0 M0 4.75 C0 1.58, 1.58 0, 4.75 0" stroke="#1e1e1e" stroke-width="1" fill="none"></path></g><g stroke-linecap="round" transform="translate(1363.6363285581951 944.0158613911923) rotate(0 11 9.5)"><path d="M0.18 2.81 C0.18 2.81, 0.18 2.81, 0.18 2.81 M0.18 2.81 C0.18 2.81, 0.18 2.81, 0.18 2.81 M-0.08 9.2 C2.44 6.31, 4.96 3.41, 6.48 1.66 M-0.08 9.2 C1.58 7.29, 3.24 5.38, 6.48 1.66 M0.31 14.85 C2.85 11.93, 5.38 9.01, 12.12 1.26 M0.31 14.85 C4.16 10.42, 8.01 5.99, 12.12 1.26 M2.02 18.98 C6.61 13.7, 11.2 8.43, 17.77 0.87 M2.02 18.98 C5.78 14.66, 9.53 10.34, 17.77 0.87 M6.35 20.1 C11.13 14.59, 15.92 9.09, 22.1 1.98 M6.35 20.1 C12.5 13.03, 18.64 5.95, 22.1 1.98 M11.34 20.46 C15.56 15.6, 19.78 10.74, 23.8 6.12 M11.34 20.46 C14.25 17.1, 17.17 13.75, 23.8 6.12 M17.64 19.31 C19.38 17.3, 21.12 15.3, 22.23 14.02 M17.64 19.31 C19.36 17.33, 21.08 15.35, 22.23 14.02" stroke="#b2f2bb" stroke-width="0.5" fill="none"></path><path d="M4.75 0 M4.75 0 C7.33 0, 9.91 0, 17.25 0 M4.75 0 C8.14 0, 11.54 0, 17.25 0 M17.25 0 C20.42 0, 22 1.58, 22 4.75 M17.25 0 C20.42 0, 22 1.58, 22 4.75 M22 4.75 C22 7.74, 22 10.73, 22 14.25 M22 4.75 C22 6.97, 22 9.2, 22 14.25 M22 14.25 C22 17.42, 20.42 19, 17.25 19 M22 14.25 C22 17.42, 20.42 19, 17.25 19 M17.25 19 C12.67 19, 8.1 19, 4.75 19 M17.25 19 C12.69 19, 8.12 19, 4.75 19 M4.75 19 C1.58 19, 0 17.42, 0 14.25 M4.75 19 C1.58 19, 0 17.42, 0 14.25 M0 14.25 C0 12.14, 0 10.03, 0 4.75 M0 14.25 C0 11.89, 0 9.54, 0 4.75 M0 4.75 C0 1.58, 1.58 0, 4.75 0 M0 4.75 C0 1.58, 1.58 0, 4.75 0" stroke="#2f9e44" stroke-width="1" fill="none"></path></g><g stroke-linecap="round" transform="translate(625.6964840299123 373.938282292605) rotate(0 11 9.5)"><path d="M4.75 0 M4.75 0 C7.74 0, 10.73 0, 17.25 0 M4.75 0 C7.71 0, 10.68 0, 17.25 0 M17.25 0 C20.42 0, 22 1.58, 22 4.75 M17.25 0 C20.42 0, 22 1.58, 22 4.75 M22 4.75 C22 7.65, 22 10.54, 22 14.25 M22 4.75 C22 7.15, 22 9.55, 22 14.25 M22 14.25 C22 17.42, 20.42 19, 17.25 19 M22 14.25 C22 17.42, 20.42 19, 17.25 19 M17.25 19 C14.5 19, 11.74 19, 4.75 19 M17.25 19 C14.72 19, 12.19 19, 4.75 19 M4.75 19 C1.58 19, 0 17.42, 0 14.25 M4.75 19 C1.58 19, 0 17.42, 0 14.25 M0 14.25 C0 10.8, 0 7.34, 0 4.75 M0 14.25 C0 11.98, 0 9.7, 0 4.75 M0 4.75 C0 1.58, 1.58 0, 4.75 0 M0 4.75 C0 1.58, 1.58 0, 4.75 0" stroke="#1e1e1e" stroke-width="1" fill="none"></path></g><g stroke-linecap="round" transform="translate(1020.7478909818354 374.2717197749837) rotate(0 11 9.5)"><path d="M4.75 0 M4.75 0 C8.84 0, 12.92 0, 17.25 0 M4.75 0 C7.52 0, 10.29 0, 17.25 0 M17.25 0 C20.42 0, 22 1.58, 22 4.75 M17.25 0 C20.42 0, 22 1.58, 22 4.75 M22 4.75 C22 7.1, 22 9.46, 22 14.25 M22 4.75 C22 7.28, 22 9.8, 22 14.25 M22 14.25 C22 17.42, 20.42 19, 17.25 19 M22 14.25 C22 17.42, 20.42 19, 17.25 19 M17.25 19 C12.51 19, 7.78 19, 4.75 19 M17.25 19 C13.22 19, 9.2 19, 4.75 19 M4.75 19 C1.58 19, 0 17.42, 0 14.25 M4.75 19 C1.58 19, 0 17.42, 0 14.25 M0 14.25 C0 11.18, 0 8.12, 0 4.75 M0 14.25 C0 11.24, 0 8.22, 0 4.75 M0 4.75 C0 1.58, 1.58 0, 4.75 0 M0 4.75 C0 1.58, 1.58 0, 4.75 0" stroke="#1e1e1e" stroke-width="1" fill="none"></path></g><g stroke-linecap="round" transform="translate(189.7478909818352 917.2717197749836) rotate(0 11 9.5)"><path d="M4.75 0 M4.75 0 C8.24 0, 11.72 0, 17.25 0 M4.75 0 C7.52 0, 10.3 0, 17.25 0 M17.25 0 C20.42 0, 22 1.58, 22 4.75 M17.25 0 C20.42 0, 22 1.58, 22 4.75 M22 4.75 C22 6.85, 22 8.95, 22 14.25 M22 4.75 C22 8.31, 22 11.86, 22 14.25 M22 14.25 C22 17.42, 20.42 19, 17.25 19 M22 14.25 C22 17.42, 20.42 19, 17.25 19 M17.25 19 C14.43 19, 11.61 19, 4.75 19 M17.25 19 C13.47 19, 9.68 19, 4.75 19 M4.75 19 C1.58 19, 0 17.42, 0 14.25 M4.75 19 C1.58 19, 0 17.42, 0 14.25 M0 14.25 C0 11.03, 0 7.81, 0 4.75 M0 14.25 C0 10.55, 0 6.85, 0 4.75 M0 4.75 C0 1.58, 1.58 0, 4.75 0 M0 4.75 C0 1.58, 1.58 0, 4.75 0" stroke="#1e1e1e" stroke-width="1" fill="none"></path></g><g stroke-linecap="round" transform="translate(600.7478909818352 923.2717197749836) rotate(0 11 9.5)"><path d="M4.75 0 M4.75 0 C9.23 0, 13.7 0, 17.25 0 M4.75 0 C8.68 0, 12.62 0, 17.25 0 M17.25 0 C20.42 0, 22 1.58, 22 4.75 M17.25 0 C20.42 0, 22 1.58, 22 4.75 M22 4.75 C22 8.14, 22 11.53, 22 14.25 M22 4.75 C22 7.21, 22 9.67, 22 14.25 M22 14.25 C22 17.42, 20.42 19, 17.25 19 M22 14.25 C22 17.42, 20.42 19, 17.25 19 M17.25 19 C12.77 19, 8.3 19, 4.75 19 M17.25 19 C12.48 19, 7.71 19, 4.75 19 M4.75 19 C1.58 19, 0 17.42, 0 14.25 M4.75 19 C1.58 19, 0 17.42, 0 14.25 M0 14.25 C0 11.21, 0 8.16, 0 4.75 M0 14.25 C0 12.16, 0 10.07, 0 4.75 M0 4.75 C0 1.58, 1.58 0, 4.75 0 M0 4.75 C0 1.58, 1.58 0, 4.75 0" stroke="#1e1e1e" stroke-width="1" fill="none"></path></g><g stroke-linecap="round" transform="translate(979.4468745888327 934.3492988735712) rotate(0 11 9.5)"><path d="M0.18 2.81 C0.18 2.81, 0.18 2.81, 0.18 2.81 M0.18 2.81 C0.18 2.81, 0.18 2.81, 0.18 2.81 M-0.08 9.2 C1.47 7.42, 3.02 5.64, 6.48 1.66 M-0.08 9.2 C1.82 7.02, 3.71 4.84, 6.48 1.66 M0.31 14.85 C4.12 10.47, 7.93 6.09, 12.12 1.26 M0.31 14.85 C4.17 10.41, 8.03 5.97, 12.12 1.26 M2.02 18.98 C6.88 13.39, 11.74 7.79, 17.77 0.87 M2.02 18.98 C5.71 14.73, 9.41 10.48, 17.77 0.87 M6.35 20.1 C12.12 13.46, 17.89 6.82, 22.1 1.98 M6.35 20.1 C9.98 15.92, 13.62 11.74, 22.1 1.98 M11.34 20.46 C14.61 16.69, 17.89 12.92, 23.8 6.12 M11.34 20.46 C16.15 14.92, 20.97 9.38, 23.8 6.12 M17.64 19.31 C18.85 17.92, 20.05 16.53, 22.23 14.02 M17.64 19.31 C19.13 17.59, 20.63 15.87, 22.23 14.02" stroke="#b2f2bb" stroke-width="0.5" fill="none"></path><path d="M4.75 0 M4.75 0 C7.61 0, 10.47 0, 17.25 0 M4.75 0 C8.83 0, 12.9 0, 17.25 0 M17.25 0 C20.42 0, 22 1.58, 22 4.75 M17.25 0 C20.42 0, 22 1.58, 22 4.75 M22 4.75 C22 7.94, 22 11.13, 22 14.25 M22 4.75 C22 6.95, 22 9.15, 22 14.25 M22 14.25 C22 17.42, 20.42 19, 17.25 19 M22 14.25 C22 17.42, 20.42 19, 17.25 19 M17.25 19 C14.47 19, 11.69 19, 4.75 19 M17.25 19 C14.4 19, 11.55 19, 4.75 19 M4.75 19 C1.58 19, 0 17.42, 0 14.25 M4.75 19 C1.58 19, 0 17.42, 0 14.25 M0 14.25 C0 10.86, 0 7.47, 0 4.75 M0 14.25 C0 10.52, 0 6.79, 0 4.75 M0 4.75 C0 1.58, 1.58 0, 4.75 0 M0 4.75 C0 1.58, 1.58 0, 4.75 0" stroke="#2f9e44" stroke-width="1" fill="none"></path></g><g stroke-linecap="round" transform="translate(1416.8588285112046 945.6269551441297) rotate(0 11 9.5)"><path d="M4.75 0 M4.75 0 C7.93 0, 11.11 0, 17.25 0 M4.75 0 C7.91 0, 11.08 0, 17.25 0 M17.25 0 C20.42 0, 22 1.58, 22 4.75 M17.25 0 C20.42 0, 22 1.58, 22 4.75 M22 4.75 C22 7.54, 22 10.33, 22 14.25 M22 4.75 C22 7.49, 22 10.24, 22 14.25 M22 14.25 C22 17.42, 20.42 19, 17.25 19 M22 14.25 C22 17.42, 20.42 19, 17.25 19 M17.25 19 C12.36 19, 7.48 19, 4.75 19 M17.25 19 C12.5 19, 7.75 19, 4.75 19 M4.75 19 C1.58 19, 0 17.42, 0 14.25 M4.75 19 C1.58 19, 0 17.42, 0 14.25 M0 14.25 C0 11.95, 0 9.65, 0 4.75 M0 14.25 C0 11.79, 0 9.32, 0 4.75 M0 4.75 C0 1.58, 1.58 0, 4.75 0 M0 4.75 C0 1.58, 1.58 0, 4.75 0" stroke="#1e1e1e" stroke-width="1" fill="none"></path></g><g stroke-linecap="round"><g transform="translate(581.1785322469644 394.327188539668) rotate(0 -0.25246989900853123 35.09722656176581)"><path d="M0 0 C-0.08 11.7, -0.42 58.5, -0.5 70.19 M0 0 C-0.08 11.7, -0.42 58.5, -0.5 70.19" stroke="#1e1e1e" stroke-width="1" fill="none"></path></g><g transform="translate(581.1785322469644 394.327188539668) rotate(0 -0.25246989900853123 35.09722656176581)"><path d="M-10.56 41.93 C-8.09 48.87, -5.62 55.81, -0.5 70.19 M-10.56 41.93 C-8.21 48.53, -5.86 55.14, -0.5 70.19" stroke="#1e1e1e" stroke-width="1" fill="none"></path></g><g transform="translate(581.1785322469644 394.327188539668) rotate(0 -0.25246989900853123 35.09722656176581)"><path d="M9.96 42.08 C7.39 48.98, 4.82 55.88, -0.5 70.19 M9.96 42.08 C7.51 48.65, 5.07 55.22, -0.5 70.19" stroke="#1e1e1e" stroke-width="1" fill="none"></path></g></g><mask></mask><g transform="translate(565.6126559886145 470.799922828029) rotate(0 22.625 10)"><text x="0" y="0" font-family="Virgil, Segoe UI Emoji" font-size="16px" fill="#1e1e1e" text-anchor="start" style="white-space: pre;" direction="ltr" dominant-baseline="text-before-edge">Photo</text></g><g transform="translate(379.0882023011951 442.57867266356175) rotate(0 26.049999237060547 10)"><text x="0" y="0" font-family="Virgil, Segoe UI Emoji" font-size="16px" fill="#1e1e1e" text-anchor="start" style="white-space: pre;" direction="ltr" dominant-baseline="text-before-edge">Accueil</text></g><g stroke-linecap="round"><g transform="translate(469.1582303974143 393.938282292605) rotate(0 -26.996433193490816 19.084140488433434)"><path d="M0 0 C-9 6.36, -44.99 31.81, -53.99 38.17 M0 0 C-9 6.36, -44.99 31.81, -53.99 38.17" stroke="#1e1e1e" stroke-width="1" fill="none"></path></g><g transform="translate(469.1582303974143 393.938282292605) rotate(0 -26.996433193490816 19.084140488433434)"><path d="M-36.9 13.52 C-42.59 21.72, -48.28 29.93, -53.99 38.17 M-36.9 13.52 C-42.31 21.33, -47.73 29.14, -53.99 38.17" stroke="#1e1e1e" stroke-width="1" fill="none"></path></g><g transform="translate(469.1582303974143 393.938282292605) rotate(0 -26.996433193490816 19.084140488433434)"><path d="M-25.05 30.27 C-34.68 32.9, -44.32 35.53, -53.99 38.17 M-25.05 30.27 C-34.22 32.78, -43.39 35.28, -53.99 38.17" stroke="#1e1e1e" stroke-width="1" fill="none"></path></g></g><mask></mask><g transform="translate(446.7541399245456 487.68929774579544) rotate(0 37.92499923706055 10)"><text x="0" y="0" font-family="Virgil, Segoe UI Emoji" font-size="16px" fill="#1e1e1e" text-anchor="start" style="white-space: pre;" direction="ltr" dominant-baseline="text-before-edge">Recherche</text></g><g stroke-linecap="round"><g transform="translate(536.1698432125445 391.82921944604897) rotate(0 -22.958085979351097 46.72171883517049)"><path d="M0 0 C-7.65 15.57, -38.26 77.87, -45.92 93.44 M0 0 C-7.65 15.57, -38.26 77.87, -45.92 93.44" stroke="#1e1e1e" stroke-width="1" fill="none"></path></g><g transform="translate(536.1698432125445 391.82921944604897) rotate(0 -22.958085979351097 46.72171883517049)"><path d="M-42.69 63.62 C-43.44 70.53, -44.19 77.45, -45.92 93.44 M-42.69 63.62 C-43.64 72.42, -44.59 81.22, -45.92 93.44" stroke="#1e1e1e" stroke-width="1" fill="none"></path></g><g transform="translate(536.1698432125445 391.82921944604897) rotate(0 -22.958085979351097 46.72171883517049)"><path d="M-24.27 72.67 C-29.29 77.49, -34.31 82.3, -45.92 93.44 M-24.27 72.67 C-30.66 78.8, -37.04 84.93, -45.92 93.44" stroke="#1e1e1e" stroke-width="1" fill="none"></path></g></g><mask></mask><g transform="translate(659.4185153122183 459.4951570693994) rotate(0 20.90833282470703 10)"><text x="0" y="0" font-family="Virgil, Segoe UI Emoji" font-size="16px" fill="#1e1e1e" text-anchor="start" style="white-space: pre;" direction="ltr" dominant-baseline="text-before-edge">Profil</text></g><g stroke-linecap="round"><g transform="translate(640.0853902769754 391.8292194460489) rotate(0 14.499843776432101 29.402460991098735)"><path d="M0 0 C4.83 9.8, 24.17 49, 29 58.8 M0 0 C4.83 9.8, 24.17 49, 29 58.8" stroke="#1e1e1e" stroke-width="1" fill="none"></path></g><g transform="translate(640.0853902769754 391.8292194460489) rotate(0 14.499843776432101 29.402460991098735)"><path d="M7.33 38.06 C14.3 44.73, 21.26 51.4, 29 58.8 M7.33 38.06 C14.41 44.84, 21.48 51.61, 29 58.8" stroke="#1e1e1e" stroke-width="1" fill="none"></path></g><g transform="translate(640.0853902769754 391.8292194460489) rotate(0 14.499843776432101 29.402460991098735)"><path d="M25.73 28.98 C26.78 38.57, 27.83 48.16, 29 58.8 M25.73 28.98 C26.8 38.72, 27.87 48.46, 29 58.8" stroke="#1e1e1e" stroke-width="1" fill="none"></path></g></g><mask></mask><g stroke-linecap="round"><g transform="translate(445.9485930480771 83.0548438704135) rotate(0 110.35992207617863 0.8055468764684548)"><path d="M0 0 C36.79 0.27, 183.93 1.34, 220.72 1.61 M0 0 C36.79 0.27, 183.93 1.34, 220.72 1.61" stroke="#1e1e1e" stroke-width="1" fill="none"></path></g></g><mask></mask><g stroke-linecap="round"><g transform="translate(841.0000000000001 83.38828135279213) rotate(0 110.35992207617869 0.8055468764684548)"><path d="M0 0 C36.79 0.27, 183.93 1.34, 220.72 1.61 M0 0 C36.79 0.27, 183.93 1.34, 220.72 1.61" stroke="#1e1e1e" stroke-width="1" fill="none"></path></g></g><mask></mask><g stroke-linecap="round"><g transform="translate(1211 89.38828135279213) rotate(0 110.35992207617869 0.8055468764684548)"><path d="M0 0 C36.79 0.27, 183.93 1.34, 220.72 1.61 M0 0 C36.79 0.27, 183.93 1.34, 220.72 1.61" stroke="#1e1e1e" stroke-width="1" fill="none"></path></g></g><mask></mask><g stroke-linecap="round"><g transform="translate(10 626.3882813527922) rotate(0 110.35992207617869 0.8055468764684406)"><path d="M0 0 C36.79 0.27, 183.93 1.34, 220.72 1.61 M0 0 C36.79 0.27, 183.93 1.34, 220.72 1.61" stroke="#1e1e1e" stroke-width="1" fill="none"></path></g></g><mask></mask><g stroke-linecap="round"><g transform="translate(421 632.3882813527922) rotate(0 110.35992207617869 0.8055468764684406)"><path d="M0 0 C36.79 0.27, 183.93 1.34, 220.72 1.61 M0 0 C36.79 0.27, 183.93 1.34, 220.72 1.61" stroke="#1e1e1e" stroke-width="1" fill="none"></path></g></g><mask></mask><g stroke-linecap="round"><g transform="translate(799.6989836069969 643.4658604513797) rotate(0 110.35992207617869 0.8055468764684406)"><path d="M0 0 C36.79 0.27, 183.93 1.34, 220.72 1.61 M0 0 C36.79 0.27, 183.93 1.34, 220.72 1.61" stroke="#1e1e1e" stroke-width="1" fill="none"></path></g></g><mask></mask><g stroke-linecap="round"><g transform="translate(1237.110937529369 654.743516721938) rotate(0 110.35992207617869 0.8055468764684406)"><path d="M0 0 C36.79 0.27, 183.93 1.34, 220.72 1.61 M0 0 C36.79 0.27, 183.93 1.34, 220.72 1.61" stroke="#1e1e1e" stroke-width="1" fill="none"></path></g></g><mask></mask><g stroke-linecap="round" transform="translate(488.892811836257 93.16578139978266) rotate(0 11.277656270558396 10.472109394089955)"><path d="M22.56 10.47 C22.56 11.08, 22.5 11.69, 22.38 12.29 C22.27 12.89, 22.1 13.48, 21.88 14.05 C21.65 14.62, 21.37 15.18, 21.04 15.71 C20.72 16.23, 20.34 16.74, 19.92 17.2 C19.5 17.67, 19.03 18.1, 18.53 18.49 C18.03 18.88, 17.48 19.24, 16.92 19.54 C16.35 19.84, 15.75 20.11, 15.13 20.31 C14.52 20.52, 13.88 20.68, 13.24 20.79 C12.59 20.89, 11.93 20.94, 11.28 20.94 C10.62 20.94, 9.96 20.89, 9.32 20.79 C8.68 20.68, 8.03 20.52, 7.42 20.31 C6.81 20.11, 6.2 19.84, 5.64 19.54 C5.07 19.24, 4.53 18.88, 4.03 18.49 C3.53 18.1, 3.06 17.67, 2.64 17.2 C2.22 16.74, 1.84 16.23, 1.51 15.71 C1.18 15.18, 0.9 14.62, 0.68 14.05 C0.46 13.48, 0.28 12.89, 0.17 12.29 C0.06 11.69, 0 11.08, 0 10.47 C0 9.87, 0.06 9.25, 0.17 8.65 C0.28 8.06, 0.46 7.46, 0.68 6.89 C0.9 6.32, 1.18 5.76, 1.51 5.24 C1.84 4.71, 2.22 4.21, 2.64 3.74 C3.06 3.28, 3.53 2.84, 4.03 2.45 C4.53 2.06, 5.07 1.71, 5.64 1.4 C6.2 1.1, 6.81 0.84, 7.42 0.63 C8.03 0.42, 8.68 0.26, 9.32 0.16 C9.96 0.05, 10.62 0, 11.28 0 C11.93 0, 12.59 0.05, 13.24 0.16 C13.88 0.26, 14.52 0.42, 15.13 0.63 C15.75 0.84, 16.35 1.1, 16.92 1.4 C17.48 1.71, 18.03 2.06, 18.53 2.45 C19.03 2.84, 19.5 3.28, 19.92 3.74 C20.34 4.21, 20.72 4.71, 21.04 5.24 C21.37 5.76, 21.65 6.32, 21.88 6.89 C22.1 7.46, 22.27 8.06, 22.38 8.65 C22.5 9.25, 22.53 10.17, 22.56 10.47 C22.58 10.78, 22.58 10.17, 22.56 10.47" stroke="#1e1e1e" stroke-width="1" fill="none"></path></g><g stroke-linecap="round" transform="translate(527.0869525126529 94.30476575862961) rotate(0 11.277656270558396 10.472109394089955)"><path d="M22.56 10.47 C22.56 11.08, 22.5 11.69, 22.38 12.29 C22.27 12.89, 22.1 13.48, 21.88 14.05 C21.65 14.62, 21.37 15.18, 21.04 15.71 C20.72 16.23, 20.34 16.74, 19.92 17.2 C19.5 17.67, 19.03 18.1, 18.53 18.49 C18.03 18.88, 17.48 19.24, 16.92 19.54 C16.35 19.84, 15.75 20.11, 15.13 20.31 C14.52 20.52, 13.88 20.68, 13.24 20.79 C12.59 20.89, 11.93 20.94, 11.28 20.94 C10.62 20.94, 9.96 20.89, 9.32 20.79 C8.68 20.68, 8.03 20.52, 7.42 20.31 C6.81 20.11, 6.2 19.84, 5.64 19.54 C5.07 19.24, 4.53 18.88, 4.03 18.49 C3.53 18.1, 3.06 17.67, 2.64 17.2 C2.22 16.74, 1.84 16.23, 1.51 15.71 C1.18 15.18, 0.9 14.62, 0.68 14.05 C0.46 13.48, 0.28 12.89, 0.17 12.29 C0.06 11.69, 0 11.08, 0 10.47 C0 9.87, 0.06 9.25, 0.17 8.65 C0.28 8.06, 0.46 7.46, 0.68 6.89 C0.9 6.32, 1.18 5.76, 1.51 5.24 C1.84 4.71, 2.22 4.21, 2.64 3.74 C3.06 3.28, 3.53 2.84, 4.03 2.45 C4.53 2.06, 5.07 1.71, 5.64 1.4 C6.2 1.1, 6.81 0.84, 7.42 0.63 C8.03 0.42, 8.68 0.26, 9.32 0.16 C9.96 0.05, 10.62 0, 11.28 0 C11.93 0, 12.59 0.05, 13.24 0.16 C13.88 0.26, 14.52 0.42, 15.13 0.63 C15.75 0.84, 16.35 1.1, 16.92 1.4 C17.48 1.71, 18.03 2.06, 18.53 2.45 C19.03 2.84, 19.5 3.28, 19.92 3.74 C20.34 4.21, 20.72 4.71, 21.04 5.24 C21.37 5.76, 21.65 6.32, 21.88 6.89 C22.1 7.46, 22.27 8.06, 22.38 8.65 C22.5 9.25, 22.53 10.17, 22.56 10.47 C22.58 10.78, 22.58 10.17, 22.56 10.47" stroke="#1e1e1e" stroke-width="1" fill="none"></path></g><g stroke-linecap="round" transform="translate(566.0866400655174 93.83265636453966) rotate(0 11.277656270558396 10.472109394089955)"><path d="M22.56 10.47 C22.56 11.08, 22.5 11.69, 22.38 12.29 C22.27 12.89, 22.1 13.48, 21.88 14.05 C21.65 14.62, 21.37 15.18, 21.04 15.71 C20.72 16.23, 20.34 16.74, 19.92 17.2 C19.5 17.67, 19.03 18.1, 18.53 18.49 C18.03 18.88, 17.48 19.24, 16.92 19.54 C16.35 19.84, 15.75 20.11, 15.13 20.31 C14.52 20.52, 13.88 20.68, 13.24 20.79 C12.59 20.89, 11.93 20.94, 11.28 20.94 C10.62 20.94, 9.96 20.89, 9.32 20.79 C8.68 20.68, 8.03 20.52, 7.42 20.31 C6.81 20.11, 6.2 19.84, 5.64 19.54 C5.07 19.24, 4.53 18.88, 4.03 18.49 C3.53 18.1, 3.06 17.67, 2.64 17.2 C2.22 16.74, 1.84 16.23, 1.51 15.71 C1.18 15.18, 0.9 14.62, 0.68 14.05 C0.46 13.48, 0.28 12.89, 0.17 12.29 C0.06 11.69, 0 11.08, 0 10.47 C0 9.87, 0.06 9.25, 0.17 8.65 C0.28 8.06, 0.46 7.46, 0.68 6.89 C0.9 6.32, 1.18 5.76, 1.51 5.24 C1.84 4.71, 2.22 4.21, 2.64 3.74 C3.06 3.28, 3.53 2.84, 4.03 2.45 C4.53 2.06, 5.07 1.71, 5.64 1.4 C6.2 1.1, 6.81 0.84, 7.42 0.63 C8.03 0.42, 8.68 0.26, 9.32 0.16 C9.96 0.05, 10.62 0, 11.28 0 C11.93 0, 12.59 0.05, 13.24 0.16 C13.88 0.26, 14.52 0.42, 15.13 0.63 C15.75 0.84, 16.35 1.1, 16.92 1.4 C17.48 1.71, 18.03 2.06, 18.53 2.45 C19.03 2.84, 19.5 3.28, 19.92 3.74 C20.34 4.21, 20.72 4.71, 21.04 5.24 C21.37 5.76, 21.65 6.32, 21.88 6.89 C22.1 7.46, 22.27 8.06, 22.38 8.65 C22.5 9.25, 22.53 10.17, 22.56 10.47 C22.58 10.78, 22.58 10.17, 22.56 10.47" stroke="#1e1e1e" stroke-width="1" fill="none"></path></g><g stroke-linecap="round" transform="translate(602.6696869889764 93.3605469704497) rotate(0 11.277656270558396 10.472109394089955)"><path d="M22.56 10.47 C22.56 11.08, 22.5 11.69, 22.38 12.29 C22.27 12.89, 22.1 13.48, 21.88 14.05 C21.65 14.62, 21.37 15.18, 21.04 15.71 C20.72 16.23, 20.34 16.74, 19.92 17.2 C19.5 17.67, 19.03 18.1, 18.53 18.49 C18.03 18.88, 17.48 19.24, 16.92 19.54 C16.35 19.84, 15.75 20.11, 15.13 20.31 C14.52 20.52, 13.88 20.68, 13.24 20.79 C12.59 20.89, 11.93 20.94, 11.28 20.94 C10.62 20.94, 9.96 20.89, 9.32 20.79 C8.68 20.68, 8.03 20.52, 7.42 20.31 C6.81 20.11, 6.2 19.84, 5.64 19.54 C5.07 19.24, 4.53 18.88, 4.03 18.49 C3.53 18.1, 3.06 17.67, 2.64 17.2 C2.22 16.74, 1.84 16.23, 1.51 15.71 C1.18 15.18, 0.9 14.62, 0.68 14.05 C0.46 13.48, 0.28 12.89, 0.17 12.29 C0.06 11.69, 0 11.08, 0 10.47 C0 9.87, 0.06 9.25, 0.17 8.65 C0.28 8.06, 0.46 7.46, 0.68 6.89 C0.9 6.32, 1.18 5.76, 1.51 5.24 C1.84 4.71, 2.22 4.21, 2.64 3.74 C3.06 3.28, 3.53 2.84, 4.03 2.45 C4.53 2.06, 5.07 1.71, 5.64 1.4 C6.2 1.1, 6.81 0.84, 7.42 0.63 C8.03 0.42, 8.68 0.26, 9.32 0.16 C9.96 0.05, 10.62 0, 11.28 0 C11.93 0, 12.59 0.05, 13.24 0.16 C13.88 0.26, 14.52 0.42, 15.13 0.63 C15.75 0.84, 16.35 1.1, 16.92 1.4 C17.48 1.71, 18.03 2.06, 18.53 2.45 C19.03 2.84, 19.5 3.28, 19.92 3.74 C20.34 4.21, 20.72 4.71, 21.04 5.24 C21.37 5.76, 21.65 6.32, 21.88 6.89 C22.1 7.46, 22.27 8.06, 22.38 8.65 C22.5 9.25, 22.53 10.17, 22.56 10.47 C22.58 10.78, 22.58 10.17, 22.56 10.47" stroke="#1e1e1e" stroke-width="1" fill="none"></path></g><g stroke-linecap="round" transform="translate(456.6151555656986 130.02648459380015) rotate(0 102.30445331149411 113.58210958205252)"><path d="M32 0 M32 0 C70.85 0, 109.7 0, 172.61 0 M32 0 C87.65 0, 143.31 0, 172.61 0 M172.61 0 C193.94 0, 204.61 10.67, 204.61 32 M172.61 0 C193.94 0, 204.61 10.67, 204.61 32 M204.61 32 C204.61 82.4, 204.61 132.81, 204.61 195.16 M204.61 32 C204.61 92.37, 204.61 152.74, 204.61 195.16 M204.61 195.16 C204.61 216.5, 193.94 227.16, 172.61 227.16 M204.61 195.16 C204.61 216.5, 193.94 227.16, 172.61 227.16 M172.61 227.16 C123.27 227.16, 73.92 227.16, 32 227.16 M172.61 227.16 C121.52 227.16, 70.43 227.16, 32 227.16 M32 227.16 C10.67 227.16, 0 216.5, 0 195.16 M32 227.16 C10.67 227.16, 0 216.5, 0 195.16 M0 195.16 C0 147.57, 0 99.98, 0 32 M0 195.16 C0 149.18, 0 103.2, 0 32 M0 32 C0 10.67, 10.67 0, 32 0 M0 32 C0 10.67, 10.67 0, 32 0" stroke="#1e1e1e" stroke-width="1" fill="none"></path></g><g transform="translate(473.33718684800465 139.69304711142172) rotate(0 27.53333282470703 10)"><text x="0" y="0" font-family="Virgil, Segoe UI Emoji" font-size="16px" fill="#1e1e1e" text-anchor="start" style="white-space: pre;" direction="ltr" dominant-baseline="text-before-edge">Pseudo</text></g><g stroke-linecap="round"><g transform="translate(456.420702442167 321.74664119329316) rotate(0 101.49890643502579 -2.842170943040401e-14)"><path d="M0 0 C33.83 0, 169.16 0, 203 0 M0 0 C33.83 0, 169.16 0, 203 0" stroke="#1e1e1e" stroke-width="1" fill="none"></path></g></g><mask></mask><g transform="translate(498.3091400185266 328.9965630815093) rotate(0 51.58333206176758 10)"><text x="0" y="0" font-family="Virgil, Segoe UI Emoji" font-size="16px" fill="#1e1e1e" text-anchor="start" style="white-space: pre;" direction="ltr" dominant-baseline="text-before-edge">Commentaires</text></g><g stroke-linecap="round"><g transform="translate(467.6983587127255 310.4689849227347) rotate(0 -35.04128912637793 -1.2083203147026893)"><path d="M0 0 C-11.68 -0.4, -58.4 -2.01, -70.08 -2.42 M0 0 C-11.68 -0.4, -58.4 -2.01, -70.08 -2.42" stroke="#1e1e1e" stroke-width="1" fill="none"></path></g><g transform="translate(467.6983587127255 310.4689849227347) rotate(0 -35.04128912637793 -1.2083203147026893)"><path d="M-41.55 -11.7 C-48.49 -9.44, -55.42 -7.19, -70.08 -2.42 M-41.55 -11.7 C-52.56 -8.12, -63.56 -4.54, -70.08 -2.42" stroke="#1e1e1e" stroke-width="1" fill="none"></path></g><g transform="translate(467.6983587127255 310.4689849227347) rotate(0 -35.04128912637793 -1.2083203147026893)"><path d="M-42.26 8.81 C-49.02 6.08, -55.79 3.35, -70.08 -2.42 M-42.26 8.81 C-52.99 4.48, -63.72 0.15, -70.08 -2.42" stroke="#1e1e1e" stroke-width="1" fill="none"></path></g></g><mask></mask><g stroke-linecap="round"><g transform="translate(510.3923431655537 295.16359426983405) rotate(0 -58.80492198219741 -16.916484405837622)"><path d="M0 0 C-19.6 -5.64, -98.01 -28.19, -117.61 -33.83 M0 0 C-19.6 -5.64, -98.01 -28.19, -117.61 -33.83" stroke="#1e1e1e" stroke-width="1" fill="none"></path></g><g transform="translate(510.3923431655537 295.16359426983405) rotate(0 -58.80492198219741 -16.916484405837622)"><path d="M-87.68 -35.9 C-99.56 -35.08, -111.45 -34.26, -117.61 -33.83 M-87.68 -35.9 C-97.63 -35.21, -107.57 -34.53, -117.61 -33.83" stroke="#1e1e1e" stroke-width="1" fill="none"></path></g><g transform="translate(510.3923431655537 295.16359426983405) rotate(0 -58.80492198219741 -16.916484405837622)"><path d="M-93.35 -16.18 C-102.99 -23.19, -112.62 -30.2, -117.61 -33.83 M-93.35 -16.18 C-101.41 -22.04, -109.47 -27.91, -117.61 -33.83" stroke="#1e1e1e" stroke-width="1" fill="none"></path></g></g><mask></mask><g stroke-linecap="round"><g transform="translate(548.2530463595713 297.5802348992394) rotate(0 -78.13804701744044 -50.34667977927859)"><path d="M0 0 C-26.05 -16.78, -130.23 -83.91, -156.28 -100.69 M0 0 C-26.05 -16.78, -130.23 -83.91, -156.28 -100.69" stroke="#1e1e1e" stroke-width="1" fill="none"></path></g><g transform="translate(548.2530463595713 297.5802348992394) rotate(0 -78.13804701744044 -50.34667977927859)"><path d="M-127.02 -94.05 C-136.56 -96.22, -146.11 -98.38, -156.28 -100.69 M-127.02 -94.05 C-136.32 -96.16, -145.62 -98.27, -156.28 -100.69" stroke="#1e1e1e" stroke-width="1" fill="none"></path></g><g transform="translate(548.2530463595713 297.5802348992394) rotate(0 -78.13804701744044 -50.34667977927859)"><path d="M-138.14 -76.8 C-144.05 -84.59, -149.97 -92.39, -156.28 -100.69 M-138.14 -76.8 C-143.9 -84.4, -149.67 -91.99, -156.28 -100.69" stroke="#1e1e1e" stroke-width="1" fill="none"></path></g></g><mask></mask><g transform="translate(366.19945227769983 299.19132865217637) rotate(0 14.816666603088379 10)"><text x="0" y="0" font-family="Virgil, Segoe UI Emoji" font-size="16px" fill="#1e1e1e" text-anchor="start" style="white-space: pre;" direction="ltr" dominant-baseline="text-before-edge">Like</text></g><g transform="translate(304.9778896660971 250.85851606406885) rotate(0 42.40833282470703 10)"><text x="0" y="0" font-family="Virgil, Segoe UI Emoji" font-size="16px" fill="#1e1e1e" text-anchor="start" style="white-space: pre;" direction="ltr" dominant-baseline="text-before-edge">Add Comms</text></g><g transform="translate(344.4496866130514 186.41476594659218) rotate(0 21.96666717529297 10)"><text x="0" y="0" font-family="Virgil, Segoe UI Emoji" font-size="16px" fill="#1e1e1e" text-anchor="start" style="white-space: pre;" direction="ltr" dominant-baseline="text-before-edge">Share</text></g><g stroke-linecap="round" transform="translate(1000.9703909348442 128.8320314702687) rotate(0 9.26378907938738 6.041601573513418)"><path d="M3.02 0 M3.02 0 C6.17 0, 9.32 0, 15.51 0 M3.02 0 C5.97 0, 8.92 0, 15.51 0 M15.51 0 C17.52 0, 18.53 1.01, 18.53 3.02 M15.51 0 C17.52 0, 18.53 1.01, 18.53 3.02 M18.53 3.02 C18.53 4.99, 18.53 6.96, 18.53 9.06 M18.53 3.02 C18.53 5.29, 18.53 7.56, 18.53 9.06 M18.53 9.06 C18.53 11.08, 17.52 12.08, 15.51 12.08 M18.53 9.06 C18.53 11.08, 17.52 12.08, 15.51 12.08 M15.51 12.08 C12.49 12.08, 9.47 12.08, 3.02 12.08 M15.51 12.08 C11.81 12.08, 8.11 12.08, 3.02 12.08 M3.02 12.08 C1.01 12.08, 0 11.08, 0 9.06 M3.02 12.08 C1.01 12.08, 0 11.08, 0 9.06 M0 9.06 C0 6.95, 0 4.84, 0 3.02 M0 9.06 C0 7.6, 0 6.14, 0 3.02 M0 3.02 C0 1.01, 1.01 0, 3.02 0 M0 3.02 C0 1.01, 1.01 0, 3.02 0" stroke="#1e1e1e" stroke-width="1" fill="none"></path></g><g stroke-linecap="round" transform="translate(1307.3445541922147 685.0989589823771) rotate(0 66.04247737203434 42.532370421649716)"><path d="M0.91 -1.02 C28.91 -0.74, 59.37 0.54, 131.53 -0.19 M131.52 0.08 C130.62 20.48, 130.06 40.59, 130.5 83.8 M132.73 84.48 C80.8 82.96, 26.17 83.05, 0.67 87.05 M0.97 85.64 C-2.01 68.62, -0.16 50.25, -1.47 -0.16" stroke="#000000" stroke-width="1.5" fill="none" stroke-dasharray="1.5 7"></path></g><g stroke-linecap="round" transform="translate(1327.367855963318 718.1496994406446) rotate(0 46.35606855669664 10.96825105793016)"><path d="M5.48 0 M5.48 0 C37.39 1, 70.85 2.27, 87.23 0 M5.48 0 C27.44 -0.23, 49.73 0.5, 87.23 0 M87.23 0 C89.69 -0.27, 90.95 0.91, 92.71 5.48 M87.23 0 C89.06 -1.45, 94.98 2.24, 92.71 5.48 M92.71 5.48 C93.51 7.52, 92.44 10.57, 92.71 16.45 M92.71 5.48 C93.22 9.61, 93.09 12.96, 92.71 16.45 M92.71 16.45 C91.33 21.02, 91.35 21.85, 87.23 21.94 M92.71 16.45 C91.02 19.93, 91.73 19.7, 87.23 21.94 M87.23 21.94 C56.76 23.06, 30.02 22.01, 5.48 21.94 M87.23 21.94 C64.69 22.33, 39.39 22.83, 5.48 21.94 M5.48 21.94 C1.67 23.44, 0.35 20.04, 0 16.45 M5.48 21.94 C2.93 20.21, 1.07 20.37, 0 16.45 M0 16.45 C-0.72 13.77, 0.39 10.06, 0 5.48 M0 16.45 C0.37 13.01, -0.37 8.85, 0 5.48 M0 5.48 C-0.85 -0.02, 3.19 -2, 5.48 0 M0 5.48 C-2.28 3.84, 3.75 0.12, 5.48 0" stroke="#000000" stroke-width="1" fill="none"></path></g><g transform="translate(1344.2239245200149 723.1179504985746) rotate(0 29.5 6)"><text x="0" y="0" font-family="Virgil, Segoe UI Emoji" font-size="9.155874303902381px" fill="#000000" text-anchor="start" style="white-space: pre;" direction="ltr" dominant-baseline="text-before-edge">Upload image</text></g><g stroke-linecap="round" transform="translate(1258.715532440137 790.4858591678675) rotate(0 85.6718115712481 27.366720400626548)"><path d="M0.75 1.21 C48.37 2.04, 94.73 -0.17, 170.74 0.08 M-0.42 0.77 C46.22 1.58, 93.13 1.57, 171.57 0.79 M169.93 1.13 C171.61 17.39, 173.11 34.39, 171.84 52.97 M172.26 -0.91 C172.64 20.39, 171.7 40.91, 171.68 55.53 M171.49 54.08 C115.43 53.79, 57.31 51.4, 1.08 53.06 M171.21 54.29 C121.12 55.28, 70.18 55.49, 0.17 55.63 M1.3 53.89 C-1.41 36.76, -1.58 21.86, -0.43 -1.9 M-0.9 54.41 C0.03 39.48, 0.34 25.04, 0.61 -0.13" stroke="#000000" stroke-width="1" fill="none"></path></g><g stroke-linecap="round" transform="translate(1421.8098044117446 794.817269400039) rotate(0 1.8125257268116002 22.921166267603496)"><path d="M0.06 0.24 C0.69 -0.18, 1.77 -0.01, 3.52 0.3 M0 0.05 C0.93 0.02, 1.66 0.12, 3.66 0.08 M3.65 -0.18 C4.83 13.71, 3.8 27.17, 5.02 47.37 M4.5 0.15 C3.98 18.21, 4.38 36.37, 3.94 45.54 M3.77 45.97 C2.78 45.53, 2.34 45.53, -0.01 45.62 M3.72 45.76 C2.38 45.78, 1.05 45.99, -0.01 45.89 M-1.26 43.94 C-1.73 33.8, -0.72 21.32, -0.41 -0.03 M0.02 45.89 C0.75 29.5, 1.03 11.2, -0.61 0.01" stroke="#000000" stroke-width="1" fill="none"></path></g><g stroke-linecap="round" transform="translate(1422.0891151205628 795.8433885233424) rotate(0 1.78071224889095 15.396630531618712)"><path d="M0.77 -0.09 L4.6 1.26 L5.49 31.26 L-1.8 31.88" stroke="none" stroke-width="0" fill="black"></path><path d="M-0.24 -0.16 C1.18 -0.01, 2.46 0.27, 3.29 -0.15 M0.12 0.05 C1.38 0.13, 2.72 0.07, 3.59 -0.13 M5.09 -0.76 C4.06 9.21, 4.96 23.49, 5.32 32.62 M3.5 0.42 C4.17 7.23, 4.14 12.56, 2.6 30.87 M3.46 30.49 C2.8 30.51, 1.64 30.59, 0.21 30.74 M3.62 30.75 C2.68 30.94, 1.73 30.83, -0.09 30.91 M-1.43 30.06 C-0.23 20.95, -0.21 14.89, 1.53 -1.8 M0.33 31.71 C0.61 22.42, -0.62 14.32, 0.15 0.99" stroke="#000000" stroke-width="1" fill="none"></path></g><g stroke-linecap="round" transform="translate(1343.9474474133904 894.6889380456256) rotate(0 46.35606855669664 10.96825105793016)"><path d="M6.64 -1.73 L90.89 -1.01 L94.06 4.41 L91.3 18.93 L88.66 21.7 L2.66 19.86 L0 19.41 L1.94 6.16 L-0.01 1.08 L5.3 -0.2" stroke="none" stroke-width="0" fill="black"></path><path d="M5.48 0 M5.48 0 C29.46 -1.96, 53.16 -0.68, 87.23 0 M5.48 0 C27.03 1.45, 47.59 0.02, 87.23 0 M87.23 0 C89.49 0.15, 94.57 1.94, 92.71 5.48 M87.23 0 C92.56 1.28, 93.69 2.99, 92.71 5.48 M92.71 5.48 C92.73 10.21, 92.86 13.01, 92.71 16.45 M92.71 5.48 C93.05 9.09, 92.22 13.48, 92.71 16.45 M92.71 16.45 C93.2 19.97, 91.33 21.9, 87.23 21.94 M92.71 16.45 C91.73 22.19, 90.13 23, 87.23 21.94 M87.23 21.94 C62.22 21.83, 39.55 24.29, 5.48 21.94 M87.23 21.94 C53.99 23.52, 22.88 21.57, 5.48 21.94 M5.48 21.94 C2.3 23.83, -0.32 20.72, 0 16.45 M5.48 21.94 C0.06 20.02, 1.03 18.13, 0 16.45 M0 16.45 C0.52 12.5, -0.28 7.8, 0 5.48 M0 16.45 C-0.16 12.89, -0.02 10.48, 0 5.48 M0 5.48 C-1.35 0.3, 2.29 -1.52, 5.48 0 M0 5.48 C-1 3.34, -0.44 -0.13, 5.48 0" stroke="#000000" stroke-width="1" fill="none"></path></g><g transform="translate(1375.211849748468 899.6571891035558) rotate(0 15.091666221618652 6)"><text x="15.091666221618652" y="0" font-family="Virgil, Segoe UI Emoji" font-size="9.155874303902381px" fill="white" text-anchor="middle" style="white-space: pre;" direction="ltr" dominant-baseline="text-before-edge">Poster</text></g><g stroke-linecap="round" transform="translate(1272.7767586765453 857.7964859095384) rotate(0 70.80503845837143 10)"><path d="M0.36 1.03 C32.4 2.31, 62.3 2.69, 140.25 0.11 M-0.94 0.25 C53.23 1.41, 107.95 2.15, 141.97 0.78 M140.6 1.51 C142.97 6.51, 140.8 13.43, 142.05 21.37 M142.43 -0.28 C141.83 8.36, 140.82 16.53, 141.88 20.58 M141.56 21.39 C111.35 18.86, 80.57 19.71, -1.46 18.48 M140.71 19.85 C86.4 20.96, 31.33 19.37, 0.2 20.08 M1.82 20.25 C0.64 13.03, -0.4 4.84, 0.04 -0.52 M-0.29 19.46 C-0.44 14.57, 1.13 7.71, -0.8 0.38" stroke="#000000" stroke-width="1" fill="none"></path></g><g transform="translate(1279.2867224150891 862.787893757718) rotate(0 21 5)"><text x="0" y="0" font-family="Virgil, Segoe UI Emoji" font-size="8.01374744291258px" fill="#000000" text-anchor="start" style="white-space: pre;" direction="ltr" dominant-baseline="text-before-edge">Filled text</text></g><g stroke-linecap="round" transform="translate(887.0595734942264 128.73604252725238) rotate(0 4.059674032544876 4.059674032544876)"><path d="M4.26 1 C5.18 0.8, 5.66 -0.47, 6.33 -0.2 C7.01 0.08, 7.9 1.58, 8.29 2.65 C8.69 3.72, 9.01 5.35, 8.73 6.24 C8.44 7.12, 7.34 7.75, 6.59 7.96 C5.83 8.17, 4.99 7.77, 4.19 7.5 C3.4 7.22, 2.5 6.77, 1.81 6.29 C1.13 5.81, 0.3 5.29, 0.07 4.62 C-0.16 3.95, -0.33 2.88, 0.41 2.27 C1.16 1.66, 3.75 1.26, 4.52 0.96 C5.29 0.65, 4.97 0.45, 5.04 0.43 M3.4 1.65 C4.35 0.93, 5.69 -0.71, 6.11 -0.79 C6.52 -0.88, 5.55 0.43, 5.88 1.13 C6.21 1.84, 7.94 2.47, 8.1 3.44 C8.26 4.4, 7.44 6.29, 6.83 6.92 C6.23 7.55, 5.45 6.89, 4.49 7.22 C3.52 7.56, 1.62 9.08, 1.05 8.91 C0.48 8.74, 1.32 7.29, 1.07 6.21 C0.83 5.13, -0.45 3.14, -0.44 2.41 C-0.44 1.68, 0.4 2.38, 1.1 1.82 C1.79 1.26, 3.31 -0.86, 3.71 -0.93" stroke="#000000" stroke-width="1" fill="none"></path></g><g stroke-linecap="round"><g transform="translate(893.6084782237427 135.23248707570292) rotate(0 2.1739532685534186 1.9197059318930911)"><path d="M-0.33 -0.38 C1.46 1.51, 2 1.33, 4.68 4.22 M0.1 0.3 C1.59 1.94, 3.4 3.34, 4.65 4.11" stroke="#000000" stroke-width="1" fill="none"></path></g></g><mask></mask><g stroke-linecap="round" transform="translate(883.4436336413029 124.859765852611) rotate(0 70.80503845837143 10)"><path d="M1.58 1.91 C38.64 -0.73, 77.48 0.6, 143.4 1.36 M-0.54 0.94 C50.7 -1.28, 102.65 -1.96, 142.52 0.48 M143.45 0.87 C139.88 7.48, 142.99 17.32, 143.26 21.43 M141.6 -0.6 C141.31 4.82, 141.41 8.99, 141.11 20.99 M141.6 18.43 C92.36 21.12, 37.47 20.64, 0.85 21.06 M141.99 19.79 C89.15 20.41, 38.2 19.79, -0.29 20.2 M-1.91 18.68 C-0.2 10.42, -0.17 3.52, -1.99 0.77 M0.71 20.69 C-0.41 13.77, 1.13 9.58, 0.84 -1" stroke="#000000" stroke-width="1" fill="none"></path></g><g transform="translate(906.3425227803003 129.85117370079053) rotate(0 13.5 5)"><text x="0" y="0" font-family="Virgil, Segoe UI Emoji" font-size="8.01374744291258px" fill="#ced4da" text-anchor="start" style="white-space: pre;" direction="ltr" dominant-baseline="text-before-edge">Search</text></g><g transform="translate(52.84171733146974 10.416640629405379) rotate(0 87.85832977294925 10)"><text x="0" y="0" font-family="Virgil, Segoe UI Emoji" font-size="16px" fill="#1e1e1e" text-anchor="start" style="white-space: pre;" direction="ltr" dominant-baseline="text-before-edge">Connexion / Inscription</text></g><g transform="translate(479.7815618597524 10) rotate(0 26.049999237060547 10)"><text x="0" y="0" font-family="Virgil, Segoe UI Emoji" font-size="16px" fill="#1e1e1e" text-anchor="start" style="white-space: pre;" direction="ltr" dominant-baseline="text-before-edge">Accueil</text></g><g transform="translate(872.082890699891 10) rotate(0 37.92499923706055 10)"><text x="0" y="0" font-family="Virgil, Segoe UI Emoji" font-size="16px" fill="#1e1e1e" text-anchor="start" style="white-space: pre;" direction="ltr" dominant-baseline="text-before-edge">Recherche</text></g><g transform="translate(1242.0828906998909 16) rotate(0 46.650001525878906 9.999999999999993)"><text x="0" y="0" font-family="Virgil, Segoe UI Emoji" font-size="16px" fill="#1e1e1e" text-anchor="start" style="white-space: pre;" direction="ltr" dominant-baseline="text-before-edge">Menu burger</text></g><g transform="translate(41.08289069989087 553) rotate(0 53.95000076293945 10)"><text x="0" y="0" font-family="Virgil, Segoe UI Emoji" font-size="16px" fill="#1e1e1e" text-anchor="start" style="white-space: pre;" direction="ltr" dominant-baseline="text-before-edge">Messages list</text></g><g transform="translate(452.08289069989087 559.0000000000001) rotate(0 37.24166488647461 10)"><text x="0" y="0" font-family="Virgil, Segoe UI Emoji" font-size="16px" fill="#1e1e1e" text-anchor="start" style="white-space: pre;" direction="ltr" dominant-baseline="text-before-edge">Messages</text></g><g transform="translate(1267.0548438704132 582.6328916397043) rotate(0 36.983333587646484 10)"><text x="0" y="0" font-family="Virgil, Segoe UI Emoji" font-size="16px" fill="#1e1e1e" text-anchor="start" style="white-space: pre;" direction="ltr" dominant-baseline="text-before-edge">New Post</text></g><g transform="translate(836.0872649597885 570.9385947397406) rotate(0 20.90833282470703 10)"><text x="0" y="0" font-family="Virgil, Segoe UI Emoji" font-size="16px" fill="#1e1e1e" text-anchor="start" style="white-space: pre;" direction="ltr" dominant-baseline="text-before-edge">Profil</text></g><g stroke-linecap="round" transform="translate(1252.1163328149073 688.4600593433737) rotate(0 20.784790264143908 15.58859269810796)"><path d="M2.07 1.8 C2.07 1.8, 2.07 1.8, 2.07 1.8 M2.07 1.8 C2.07 1.8, 2.07 1.8, 2.07 1.8 M3.13 6.69 C5.08 4.44, 7.03 2.2, 8.37 0.65 M3.13 6.69 C5.03 4.5, 6.93 2.31, 8.37 0.65 M2.86 13.09 C5.99 9.49, 9.12 5.89, 14.02 0.26 M2.86 13.09 C5.15 10.46, 7.43 7.83, 14.02 0.26 M2.6 19.49 C8.74 12.43, 14.87 5.37, 19 0.62 M2.6 19.49 C8.23 13.02, 13.85 6.54, 19 0.62 M1.03 27.39 C6.39 21.22, 11.76 15.05, 24.65 0.23 M1.03 27.39 C9.1 18.11, 17.18 8.82, 24.65 0.23 M3.39 30.77 C11.55 21.39, 19.7 12.01, 29.63 0.59 M3.39 30.77 C11.78 21.12, 20.17 11.47, 29.63 0.59 M8.38 31.13 C16.06 22.29, 23.75 13.46, 34.62 0.95 M8.38 31.13 C14.88 23.66, 21.38 16.18, 34.62 0.95 M13.37 31.49 C22.01 21.55, 30.66 11.6, 38.95 2.06 M13.37 31.49 C19.76 24.14, 26.16 16.78, 38.95 2.06 M19.01 31.1 C23.78 25.61, 28.55 20.12, 41.97 4.68 M19.01 31.1 C25.99 23.06, 32.98 15.03, 41.97 4.68 M24 31.46 C30.86 23.56, 37.73 15.66, 43.02 9.57 M24 31.46 C30.48 24, 36.96 16.54, 43.02 9.57 M28.98 31.82 C32.63 27.62, 36.28 23.43, 43.42 15.22 M28.98 31.82 C33.94 26.12, 38.9 20.41, 43.42 15.22 M34.63 31.42 C36.32 29.47, 38.02 27.52, 41.84 23.12 M34.63 31.42 C36.42 29.36, 38.22 27.29, 41.84 23.12" stroke="#b2f2bb" stroke-width="0.5" fill="none"></path><path d="M7.79 0 M7.79 0 C14.5 0, 21.2 0, 33.78 0 M7.79 0 C14.23 0, 20.67 0, 33.78 0 M33.78 0 C38.97 0, 41.57 2.6, 41.57 7.79 M33.78 0 C38.97 0, 41.57 2.6, 41.57 7.79 M41.57 7.79 C41.57 12.17, 41.57 16.54, 41.57 23.38 M41.57 7.79 C41.57 12.24, 41.57 16.69, 41.57 23.38 M41.57 23.38 C41.57 28.58, 38.97 31.18, 33.78 31.18 M41.57 23.38 C41.57 28.58, 38.97 31.18, 33.78 31.18 M33.78 31.18 C25.86 31.18, 17.94 31.18, 7.79 31.18 M33.78 31.18 C24.73 31.18, 15.69 31.18, 7.79 31.18 M7.79 31.18 C2.6 31.18, 0 28.58, 0 23.38 M7.79 31.18 C2.6 31.18, 0 28.58, 0 23.38 M0 23.38 C0 19.71, 0 16.03, 0 7.79 M0 23.38 C0 19.07, 0 14.76, 0 7.79 M0 7.79 C0 2.6, 2.6 0, 7.79 0 M0 7.79 C0 2.6, 2.6 0, 7.79 0" stroke="#2f9e44" stroke-width="1" fill="none"></path></g><g stroke-linecap="round" transform="translate(1252.7136896001753 732.6065004916102) rotate(0 20.784790264143908 15.58859269810796)"><path d="M7.79 0 M7.79 0 C15.42 0, 23.04 0, 33.78 0 M7.79 0 C15.97 0, 24.15 0, 33.78 0 M33.78 0 C38.97 0, 41.57 2.6, 41.57 7.79 M33.78 0 C38.97 0, 41.57 2.6, 41.57 7.79 M41.57 7.79 C41.57 12.24, 41.57 16.69, 41.57 23.38 M41.57 7.79 C41.57 12.97, 41.57 18.14, 41.57 23.38 M41.57 23.38 C41.57 28.58, 38.97 31.18, 33.78 31.18 M41.57 23.38 C41.57 28.58, 38.97 31.18, 33.78 31.18 M33.78 31.18 C23.63 31.18, 13.49 31.18, 7.79 31.18 M33.78 31.18 C26.63 31.18, 19.48 31.18, 7.79 31.18 M7.79 31.18 C2.6 31.18, 0 28.58, 0 23.38 M7.79 31.18 C2.6 31.18, 0 28.58, 0 23.38 M0 23.38 C0 17.32, 0 11.26, 0 7.79 M0 23.38 C0 18.56, 0 13.73, 0 7.79 M0 7.79 C0 2.6, 2.6 0, 7.79 0 M0 7.79 C0 2.6, 2.6 0, 7.79 0" stroke="#1e1e1e" stroke-width="1" fill="none"></path></g><g stroke-linecap="round"><g transform="translate(1251.7136896001753 747.1444123186506) rotate(0 -27.94649349742201 3.73104725260265)"><path d="M0 0 C-9.32 1.24, -46.58 6.22, -55.89 7.46 M0 0 C-9.32 1.24, -46.58 6.22, -55.89 7.46" stroke="#1e1e1e" stroke-width="1" fill="none"></path></g><g transform="translate(1251.7136896001753 747.1444123186506) rotate(0 -27.94649349742201 3.73104725260265)"><path d="M-30.91 -5.6 C-40.25 -0.72, -49.6 4.17, -55.89 7.46 M-30.91 -5.6 C-39.2 -1.27, -47.49 3.07, -55.89 7.46" stroke="#1e1e1e" stroke-width="1" fill="none"></path></g><g transform="translate(1251.7136896001753 747.1444123186506) rotate(0 -27.94649349742201 3.73104725260265)"><path d="M-28.36 13.51 C-38.66 11.25, -48.96 8.99, -55.89 7.46 M-28.36 13.51 C-37.49 11.51, -46.63 9.5, -55.89 7.46" stroke="#1e1e1e" stroke-width="1" fill="none"></path></g></g><mask></mask><g stroke-linecap="round"><g transform="translate(1250.6317049388967 704.7909659794867) rotate(0 -29.9399954995406 -0.7423139380051111)"><path d="M0 0 C-9.98 -0.25, -49.9 -1.24, -59.88 -1.48 M0 0 C-9.98 -0.25, -49.9 -1.24, -59.88 -1.48" stroke="#1e1e1e" stroke-width="1" fill="none"></path></g><g transform="translate(1250.6317049388967 704.7909659794867) rotate(0 -29.9399954995406 -0.7423139380051111)"><path d="M-31.49 -11.03 C-42.53 -7.32, -53.58 -3.6, -59.88 -1.48 M-31.49 -11.03 C-37.2 -9.11, -42.9 -7.19, -59.88 -1.48" stroke="#1e1e1e" stroke-width="1" fill="none"></path></g><g transform="translate(1250.6317049388967 704.7909659794867) rotate(0 -29.9399954995406 -0.7423139380051111)"><path d="M-32 9.45 C-42.84 5.2, -53.69 0.94, -59.88 -1.48 M-32 9.45 C-37.6 7.25, -43.21 5.06, -59.88 -1.48" stroke="#1e1e1e" stroke-width="1" fill="none"></path></g></g><mask></mask><g transform="translate(1108.10742884191 689.4498112607139) rotate(0 40.891666412353516 10)"><text x="0" y="0" font-family="Virgil, Segoe UI Emoji" font-size="16px" fill="#1e1e1e" text-anchor="start" style="white-space: pre;" direction="ltr" dominant-baseline="text-before-edge">Upload img</text></g><g transform="translate(1114.0459403459513 744.8759186317643) rotate(0 39.75833511352539 10)"><text x="0" y="0" font-family="Virgil, Segoe UI Emoji" font-size="16px" fill="#1e1e1e" text-anchor="start" style="white-space: pre;" direction="ltr" dominant-baseline="text-before-edge">App Photo</text></g><g stroke-linecap="round" transform="translate(806.5085191575776 646.913734182003) rotate(0 27.369951705823155 27.369951705823212)"><path d="M1.62 0.99 C16.49 1.82, 37.11 -1.06, 55.49 0.83 M0.46 -0.35 C20.84 0.87, 39.93 -0.05, 54.65 -0.9 M55.36 1.5 C53.78 18.8, 53.75 38.14, 53.37 52.81 M54.03 0.69 C55.73 15.06, 55.01 29.98, 54.61 55.36 M52.95 52.88 C43.57 53.47, 29.41 54.63, 1.18 54.2 M54.01 54.82 C42.42 54.57, 30.83 54.52, 0.2 55.2 M-1.4 55.77 C-1.73 33.82, -0.49 12.75, 1.06 1.67 M-0.08 54.09 C-0.59 32.61, -0.13 11.73, 0.71 0.39" stroke="#000000" stroke-width="1" fill="none"></path></g><g stroke-linecap="round"><g transform="translate(823.122309170691 683.3383018199822) rotate(0 10.308118964799974 -9.687973617507964)"><path d="M-1.35 1.65 C6.81 -6.87, 11.69 -10.35, 21.97 -19.18 M0.6 0.88 C5.57 -6.16, 12.23 -13.22, 20.96 -21.03" stroke="#000000" stroke-width="1" fill="none"></path></g></g><mask></mask><g stroke-linecap="round"><g transform="translate(843.695809258685 683.3383018199822) rotate(0 -9.657085399397943 -10.128140612437278)"><path d="M1.42 -1.23 C-6.3 -6.18, -12.85 -12.83, -20.54 -19.61 M-0.55 -0.04 C-5.67 -6.16, -10.65 -11.21, -20.74 -20.22" stroke="#000000" stroke-width="1" fill="none"></path></g></g><mask></mask><g stroke-linecap="round" transform="translate(807.5085191575776 714.913734182003) rotate(0 27.369951705823155 27.369951705823212)"><path d="M0.66 1.16 C16.34 -0.25, 36.3 -1.71, 53.75 0.48 M-0.1 -0.34 C17.92 -0.21, 36.59 -0.93, 55.28 0.97 M56.21 1.81 C53.75 17.21, 54.08 29.22, 55.43 52.85 M54.11 -0.72 C55.44 21.41, 54.08 43.41, 55.37 55.25 M55.86 54.97 C42.37 55.97, 28.24 53.53, -0.11 55.95 M54.65 55.29 C38.56 54.21, 23.03 55.02, 0.93 53.86 M0.91 56.02 C0.5 45.32, 1.17 30.83, -1.5 -0.9 M-0.01 54.42 C-0.14 37.42, 0.35 19.53, -0.89 -0.72" stroke="#000000" stroke-width="1" fill="none"></path></g><g stroke-linecap="round"><g transform="translate(824.122309170691 751.3383018199822) rotate(0 10.600800748237702 -10.721570177866965)"><path d="M1.16 -1.01 C7.4 -5.79, 13.28 -15.71, 21.05 -19.7 M-0.34 -0.76 C5.18 -5.85, 9.57 -9.63, 21.54 -20.68" stroke="#000000" stroke-width="1" fill="none"></path></g></g><mask></mask><g stroke-linecap="round"><g transform="translate(844.695809258685 751.3383018199822) rotate(0 -10.745205636390779 -10.655928998186141)"><path d="M-1.01 0.24 C-6.49 -9.1, -17.1 -15.41, -19.75 -21.56 M-0.76 0.25 C-8.67 -8.43, -15.26 -14.89, -20.73 -21" stroke="#000000" stroke-width="1" fill="none"></path></g></g><mask></mask><g stroke-linecap="round" transform="translate(884.5085191575776 650.913734182003) rotate(0 27.369951705823155 27.369951705823212)"><path d="M-1.48 1.11 C17.12 1.2, 32.78 1.66, 55.33 -0.56 M-0.99 0.61 C20.81 0.82, 42.79 0.18, 54.29 -0.5 M52.75 1.9 C55.09 18.49, 55.26 34.28, 54.22 55.03 M54.91 0.23 C54.66 12.15, 55.95 25.72, 54.73 55.3 M54.04 52.85 C38.09 54.28, 22.78 56.4, 1.12 52.76 M54.08 53.98 C42.42 55.57, 30.62 54.5, 0.47 54.29 M-0.03 53.09 C-0.69 40.35, 2.42 25.91, -0.36 1.68 M0.88 54.71 C0.21 39.37, 0.66 25.16, 0.53 -0.92" stroke="#000000" stroke-width="1" fill="none"></path></g><g stroke-linecap="round"><g transform="translate(901.122309170691 687.3383018199822) rotate(0 10.33830761469278 -9.28355324168399)"><path d="M1.11 1.72 C7.59 -4.2, 14.4 -11.93, 20.01 -18.64 M0.61 -0.77 C8.16 -7.61, 14.99 -15.15, 20.07 -20.28" stroke="#000000" stroke-width="1" fill="none"></path></g></g><mask></mask><g stroke-linecap="round"><g transform="translate(921.695809258685 687.3383018199822) rotate(0 -9.307188700207803 -9.85748854179576)"><path d="M1.72 1.27 C-4.3 -4.57, -12.12 -13.28, -18.69 -19.27 M-0.77 0.62 C-5.58 -5.31, -11.09 -11.19, -20.33 -20.98" stroke="#000000" stroke-width="1" fill="none"></path></g></g><mask></mask><g stroke-linecap="round" transform="translate(885.5085191575776 718.913734182003) rotate(0 27.369951705823155 27.369951705823212)"><path d="M0.24 1.6 C17.01 -0.71, 36.94 1.1, 53.7 1.69 M0.25 -0.78 C15.39 0.96, 32.68 0.26, 54.27 0.77 M56.37 -0.4 C53.29 21.14, 53.34 42.71, 55.45 56.04 M54.78 -0.85 C55.03 13.6, 54.86 25.21, 54.09 54.09 M56.33 53.08 C34.4 54.65, 16.98 54.43, -1.95 56.45 M53.74 54.09 C38.59 55.31, 21.95 53.43, 0.6 54.39 M1.79 56.24 C-1.83 34.33, -1.26 17.41, -0.92 -0.82 M0.44 54.84 C0.48 37.49, -0.55 21.29, -0.14 -0.83" stroke="#000000" stroke-width="1" fill="none"></path></g><g stroke-linecap="round"><g transform="translate(902.122309170691 755.3383018199822) rotate(0 10.742233972319696 -10.59841051597789)"><path d="M1.6 -1.22 C6.49 -6.89, 15.66 -15.76, 22.26 -20.73 M-0.78 -0.46 C6.17 -4.55, 10.95 -11.45, 21.34 -19.79" stroke="#000000" stroke-width="1" fill="none"></path></g></g><mask></mask><g stroke-linecap="round"><g transform="translate(922.695809258685 755.3383018199822) rotate(0 -10.622045974501702 -10.332975982620269)"><path d="M-1.22 -0.99 C-4.68 -4.13, -11.33 -8.39, -20.78 -21.2 M-0.46 0.54 C-3.69 -4.91, -9.73 -8.57, -19.84 -19.62" stroke="#000000" stroke-width="1" fill="none"></path></g></g><mask></mask><g stroke-linecap="round" transform="translate(959.5085191575776 650.913734182003) rotate(0 27.369951705823155 27.369951705823212)"><path d="M1.27 1.98 C14.1 0.12, 24.18 1.41, 56 -0.73 M0.62 -0.36 C10.97 -0.03, 21.48 0.66, 54.28 -0.03 M55.49 0.77 C54.05 10.44, 55.55 20.69, 56.17 54.44 M53.87 0.82 C54.55 17.32, 55.43 34.64, 55.72 54.46 M54.44 55.5 C42.03 55.78, 23.73 53.15, -0.16 54.41 M55.66 55.22 C41.76 55.19, 28.63 54.27, -0.93 55.01 M-0.47 56.65 C-0.53 38.04, 2.13 21.47, 0.34 -0.34 M-0.58 55.49 C0.02 34.05, -0.9 13.17, 0.55 0.98" stroke="#000000" stroke-width="1" fill="none"></path></g><g stroke-linecap="round"><g transform="translate(976.122309170691 687.3383018199822) rotate(0 10.090223963626954 -10.389300062253028)"><path d="M1.98 1.73 C7.73 -7.99, 16.33 -13.46, 19.84 -22.51 M-0.36 -0.02 C7.13 -8.03, 15.24 -15.39, 20.54 -21.52" stroke="#000000" stroke-width="1" fill="none"></path></g></g><mask></mask><g stroke-linecap="round"><g transform="translate(996.695809258685 687.3383018199822) rotate(0 -10.412935520776841 -9.493835567428619)"><path d="M1.73 0.59 C-8.63 -5.83, -14.75 -16.37, -22.56 -19.31 M-0.02 -0.45 C-5.22 -4.41, -9.76 -9.26, -21.57 -19.58" stroke="#000000" stroke-width="1" fill="none"></path></g></g><mask></mask><g stroke-linecap="round" transform="translate(960.5085191575776 718.913734182003) rotate(0 27.369951705823155 27.369951705823212)"><path d="M-0.99 0.48 C17.9 -0.7, 35.84 0.13, 54.06 -1.53 M0.54 0.97 C17.64 -0.22, 36.36 0.99, 55.64 -0.37 M55.43 -1.89 C56.44 21.58, 55.93 40.49, 53.31 55.76 M55.37 0.51 C53.54 16, 53.62 33.86, 54.86 54.77 M54.63 55.95 C33.64 52.55, 14.9 54.34, 1.11 53.43 M55.67 53.86 C42.84 55.24, 32.49 55.09, 0.64 55.16 M-1.5 53.84 C0.08 32.49, -1.22 12.06, -0.63 -0.78 M-0.89 54.02 C-0.79 35.78, -0.89 17.21, 0.37 0.58" stroke="#000000" stroke-width="1" fill="none"></path></g><g stroke-linecap="round"><g transform="translate(977.122309170691 755.3383018199822) rotate(0 10.344669292935464 -9.599181725575477)"><path d="M0.48 0.83 C6.91 -6.01, 15.56 -16.18, 19.05 -20.02 M0.97 -0.15 C4.19 -3.9, 9.97 -8.32, 20.21 -19.71" stroke="#000000" stroke-width="1" fill="none"></path></g></g><mask></mask><g stroke-linecap="round"><g transform="translate(997.695809258685 755.3383018199822) rotate(0 -9.62281718409929 -11.277120499803573)"><path d="M0.83 -1.04 C-3.13 -5.06, -10.41 -11.29, -20.07 -22.08 M-0.15 -0.47 C-4.56 -4.27, -9.64 -10.58, -19.76 -20.73" stroke="#000000" stroke-width="1" fill="none"></path></g></g><mask></mask><g transform="translate(50.37847086340071 372.7836858878262) rotate(0 44.88333511352539 10)"><text x="0" y="0" font-family="Virgil, Segoe UI Emoji" font-size="16px" fill="#1e1e1e" text-anchor="start" style="white-space: pre;" direction="ltr" dominant-baseline="text-before-edge">others links</text></g><g stroke-linecap="round" transform="translate(19.378470863400707 648.7836858878262) rotate(0 101.5 19.5)"><path d="M9.75 0 M9.75 0 C74.92 0, 140.09 0, 193.25 0 M9.75 0 C47.39 0, 85.03 0, 193.25 0 M193.25 0 C199.75 0, 203 3.25, 203 9.75 M193.25 0 C199.75 0, 203 3.25, 203 9.75 M203 9.75 C203 14.57, 203 19.39, 203 29.25 M203 9.75 C203 14.04, 203 18.32, 203 29.25 M203 29.25 C203 35.75, 199.75 39, 193.25 39 M203 29.25 C203 35.75, 199.75 39, 193.25 39 M193.25 39 C124.56 39, 55.88 39, 9.75 39 M193.25 39 C120.73 39, 48.2 39, 9.75 39 M9.75 39 C3.25 39, 0 35.75, 0 29.25 M9.75 39 C3.25 39, 0 35.75, 0 29.25 M0 29.25 C0 22.35, 0 15.46, 0 9.75 M0 29.25 C0 24.19, 0 19.13, 0 9.75 M0 9.75 C0 3.25, 3.25 0, 9.75 0 M0 9.75 C0 3.25, 3.25 0, 9.75 0" stroke="#1e1e1e" stroke-width="1" fill="none"></path></g><g stroke-linecap="round" transform="translate(18.378470863400707 700.7836858878262) rotate(0 101.5 19.5)"><path d="M9.75 0 M9.75 0 C65.89 0, 122.02 0, 193.25 0 M9.75 0 C81.99 0, 154.24 0, 193.25 0 M193.25 0 C199.75 0, 203 3.25, 203 9.75 M193.25 0 C199.75 0, 203 3.25, 203 9.75 M203 9.75 C203 16.5, 203 23.25, 203 29.25 M203 9.75 C203 14.72, 203 19.69, 203 29.25 M203 29.25 C203 35.75, 199.75 39, 193.25 39 M203 29.25 C203 35.75, 199.75 39, 193.25 39 M193.25 39 C132.43 39, 71.61 39, 9.75 39 M193.25 39 C131.37 39, 69.49 39, 9.75 39 M9.75 39 C3.25 39, 0 35.75, 0 29.25 M9.75 39 C3.25 39, 0 35.75, 0 29.25 M0 29.25 C0 24.83, 0 20.4, 0 9.75 M0 29.25 C0 25.25, 0 21.26, 0 9.75 M0 9.75 C0 3.25, 3.25 0, 9.75 0 M0 9.75 C0 3.25, 3.25 0, 9.75 0" stroke="#1e1e1e" stroke-width="1" fill="none"></path></g><g transform="translate(25.378470863400707 658.7836858878262) rotate(0 27.53333282470703 10)"><text x="0" y="0" font-family="Virgil, Segoe UI Emoji" font-size="16px" fill="#1e1e1e" text-anchor="start" style="white-space: pre;" direction="ltr" dominant-baseline="text-before-edge">Pseudo</text></g><g transform="translate(436.3784708634007 664.7836858878264) rotate(0 27.53333282470703 10)"><text x="0" y="0" font-family="Virgil, Segoe UI Emoji" font-size="16px" fill="#1e1e1e" text-anchor="start" style="white-space: pre;" direction="ltr" dominant-baseline="text-before-edge">Pseudo</text></g><g transform="translate(24.378470863400707 710.7836858878262) rotate(0 27.53333282470703 10)"><text x="0" y="0" font-family="Virgil, Segoe UI Emoji" font-size="16px" fill="#1e1e1e" text-anchor="start" style="white-space: pre;" direction="ltr" dominant-baseline="text-before-edge">Pseudo</text></g><g transform="translate(1224.3784708634007 225.7836858878262) rotate(0 46.56666564941406 20)"><text x="0" y="0" font-family="Virgil, Segoe UI Emoji" font-size="16px" fill="#1e1e1e" text-anchor="start" style="white-space: pre;" direction="ltr" dominant-baseline="text-before-edge">Paramtres</text><text x="0" y="20" font-family="Virgil, Segoe UI Emoji" font-size="16px" fill="#1e1e1e" text-anchor="start" style="white-space: pre;" direction="ltr" dominant-baseline="text-before-edge">Etc ...</text></g><g transform="translate(463.3784708634007 710.7836858878262) rotate(0 31.84166717529297 10)"><text x="0" y="0" font-family="Virgil, Segoe UI Emoji" font-size="16px" fill="#1e1e1e" text-anchor="start" style="white-space: pre;" direction="ltr" dominant-baseline="text-before-edge">message</text></g><g transform="translate(454.3784708634007 788.7836858878262) rotate(0 31.84166717529297 10)"><text x="0" y="0" font-family="Virgil, Segoe UI Emoji" font-size="16px" fill="#1e1e1e" text-anchor="start" style="white-space: pre;" direction="ltr" dominant-baseline="text-before-edge">message</text></g><g transform="translate(527.3784708634007 841.7836858878262) rotate(0 31.84166717529297 10)"><text x="0" y="0" font-family="Virgil, Segoe UI Emoji" font-size="16px" fill="#1e1e1e" text-anchor="start" style="white-space: pre;" direction="ltr" dominant-baseline="text-before-edge">message</text></g><g transform="translate(544.3784708634007 750.7836858878262) rotate(0 31.84166717529297 10)"><text x="0" y="0" font-family="Virgil, Segoe UI Emoji" font-size="16px" fill="#1e1e1e" text-anchor="start" style="white-space: pre;" direction="ltr" dominant-baseline="text-before-edge">message</text></g></svg>